<?xml version="1.0" encoding="UTF-8" standalone="no"?>
<svg
   version="1.1"
   width="127.5591"
   height="127.5591"
   id="svg99"
   sodipodi:docname="bowo.svg"
   inkscape:version="1.2.2 (732a01da63, 2022-12-09)"
   xmlns:inkscape="http://www.inkscape.org/namespaces/inkscape"
   xmlns:sodipodi="http://sodipodi.sourceforge.net/DTD/sodipodi-0.dtd"
   xmlns="http://www.w3.org/2000/svg"
   xmlns:svg="http://www.w3.org/2000/svg">
  <defs
     id="defs103" />
  <sodipodi:namedview
     id="namedview101"
     pagecolor="#ffffff"
     bordercolor="#000000"
     borderopacity="0.25"
     inkscape:showpageshadow="2"
     inkscape:pageopacity="0.0"
     inkscape:pagecheckerboard="0"
     inkscape:deskcolor="#d1d1d1"
     showgrid="false"
     inkscape:zoom="4.7272207"
     inkscape:cx="97.731846"
     inkscape:cy="68.644987"
     inkscape:window-width="1920"
     inkscape:window-height="991"
     inkscape:window-x="-9"
     inkscape:window-y="-9"
     inkscape:window-maximized="1"
     inkscape:current-layer="svg99" />
  <g
     id="g1057"
     transform="matrix(1.0366711,0,0,1,-33.765177,17.884834)">
    <path
       d="m 132.36268,41.207304 c 0.94239,0.296409 2.29573,-0.176225 2.86425,-0.46347 2.97408,-1.502756 3.0524,-5.104306 3.8558,-8.628867 0.38422,-1.685074 2.22087,-8.934429 1.99365,-10.432482 -0.13427,-0.884389 -0.63733,-1.927533 -1.5337,-2.16813 -1.34108,-0.192868 -2.36976,-0.803208 -4.46362,0.378736 -1.59004,0.897759 -2.36215,2.656549 -2.69341,4.493611 -0.21792,1.208165 -0.60154,2.596586 -0.8459,3.875209 -0.46882,2.453252 -1.02176,5.416306 -1.63011,7.764361 -0.33038,1.274726 -0.53109,2.271442 -0.11586,3.337535 l 0.57181,0.905552 c 0.70018,0.79967 1.17887,0.561757 1.99709,0.937945 z"
       style="fill:#24aadf;fill-rule:evenodd"
       id="path8" />
    <path
       d="m 148.61267,40.763799 c -0.0614,-0.177745 -0.26493,-8.607563 -0.17389,-8.996764 2.34658,-1.569127 2.36155,-2.015253 3.15929,-5.316988 0.27249,-1.128217 0.71277,-2.67942 0.81807,-3.772512 0.15209,-1.571793 -0.52403,-2.051739 -0.80724,-2.596294 -1.25668,-0.762435 -1.85583,-0.935812 -3.63758,-0.800037 -1.07038,0.08155 -2.40085,0.02258 -3.48785,0.04522 l -4.84881,21.631304 2.51755,-0.02693 1.96456,-8.608773 c 0.46573,-0.158253 1.20698,-0.16286 1.74846,-0.0069 0.12775,0.504244 0.0835,1.615343 0.0596,2.210767 -0.0535,1.338765 0.16552,5.326224 0.0557,6.477118 0.56527,0.108914 0.96643,0.04983 1.48745,0.06427 0.59453,0.01633 1.03376,0.208875 1.14465,-0.303484 z"
       style="fill:#24aadf;fill-rule:evenodd"
       id="path12" />
    <path
       d="m 119.52572,40.755457 c 0.44332,0.111957 1.17334,0.128046 1.59178,0.02183 l 1.64358,-7.782181 c 0.5749,-0.274354 1.40941,-0.100754 2.0582,-0.138936 4.7737,-0.281464 4.83524,-4.934691 5.60516,-8.428572 0.24649,-1.118104 0.60448,-3.372154 -0.63597,-3.972254 -1.11894,-0.900589 -1.97439,-0.75224 -3.29999,-0.737426 -1.01175,0.01112 -2.56964,-0.0418 -3.33014,0.108078 -0.88022,4.8869 -2.12212,10.608221 -3.15989,15.625278 -0.23474,1.134917 -1.01424,4.386359 -1.08937,5.262155 z"
       style="fill:#24aadf;fill-rule:evenodd"
       id="path14" />
    <path
       d="m 109.11407,40.754596 1.39407,-0.03891 1.68071,-5.415117 c 0.37832,-0.0975 2.69097,-0.01266 3.04494,0.104346 -0.13192,0.716054 0.0782,0.536715 -0.77153,0.590947 -0.43545,0.02785 -0.16973,-0.03305 -0.41256,0.08616 0.22797,0.119784 0.0938,0.09429 0.39808,0.149838 l 0.76032,0.106616 c -0.20745,0.774189 -0.2809,3.599136 -0.55923,4.646383 0.42882,0.08302 0.31992,0.02889 0.62117,0.03165 0.19116,-0.166292 0.15396,-0.200587 0.5523,-0.251423 l 1.39812,-0.0042 c 0.28407,-0.981729 0.3568,-4.11155 0.47712,-5.360362 0.16879,-1.749631 0.26786,-3.463177 0.41704,-5.279869 0.0357,-0.434158 0.78956,-9.87006 0.62444,-10.367341 -1.11275,-0.186869 -2.69514,0.10782 -3.80781,0.01301 -1.07166,3.534676 -2.31923,6.925314 -3.37909,10.449588 -0.49683,1.652106 -1.07014,3.63447 -1.6737,5.208905 -0.31666,0.825572 -0.52695,1.755638 -0.82861,2.609455 -0.15122,0.428357 -0.27761,0.894634 -0.42122,1.337867 -0.0479,0.147938 -0.18001,0.509159 -0.20736,0.635174 -0.0349,0.157133 -0.0407,0.167175 -0.04,0.327816 0.002,0.327208 -0.031,0.104316 0.0712,0.334319 z"
       style="fill:#24aadf;fill-rule:evenodd"
       id="path16" />
    <path
       d="m 102.97235,41.512838 -0.85377,-0.06229 0.25693,-0.784636 c 0.88797,-0.145328 4.21916,0.146075 4.91367,-0.05461 l 0.47147,-2.146308 c -0.53324,-0.252414 -2.01608,-0.100525 -2.66949,-0.167211 -0.39038,0.02429 -0.34531,0.101795 -0.68324,-0.124168 l 3.49762,-18.063344 0.34335,-0.07747 c -0.60279,-0.181807 -1.03928,-0.213042 -1.69936,-0.176748 l -0.99277,0.07822 c -0.30415,1.569357 -0.71548,3.380718 -0.97651,4.994753 l -1.10657,6.205341 c -0.1186,0.461945 -0.24457,0.808035 -0.29963,1.280896 -0.19978,1.716169 -0.89645,4.435933 -0.96679,5.057402 -0.15001,1.326372 -0.36725,1.655353 -0.42304,2.129367 -0.0358,0.304817 -0.0503,0.160753 0.0109,0.337429 -0.0426,0.158991 -0.1605,0.525981 -0.1718,0.668204 -0.0229,0.274106 0.0166,0.192758 0.0263,0.209537 0.20575,0.358778 0.0348,0.06957 0.1314,0.03159 l 0.53217,0.142802 -0.17114,0.639082 z"
       style="fill:#24aadf;fill-rule:evenodd"
       id="path18" />
    <path
       d="m 106.13081,34.628737 c -0.55209,1.065515 -0.53541,3.005434 -1.03965,3.66904 0.65341,0.06669 2.13625,-0.0852 2.66949,0.167211 l -0.47147,2.146308 c -0.69451,0.200686 -4.0257,-0.09072 -4.91367,0.05461 l -0.25693,0.784636 0.85377,0.06229 c 0.78174,-0.07151 2.15537,0.01227 2.9948,0.04536 l 2.3111,0.09023 c 0.54467,-0.03482 0.48019,-0.455643 0.97763,0.02467 0.18081,0.174442 0.11039,0.193051 0.28835,0.09725 -0.2447,-0.276765 -0.0978,-0.01285 -0.0553,-0.396635 -0.23932,-0.06578 -0.0595,-0.142347 -0.30504,-0.0249 l -0.21364,-0.05735 0.14385,-0.536861 -0.66161,-0.08514 c -0.10187,-0.2299 -0.0694,-0.0071 -0.0712,-0.334319 -7.4e-4,-0.160667 0.006,-0.170553 0.04,-0.327816 0.0275,-0.125964 0.15954,-0.48721 0.20736,-0.635174 0.14361,-0.443233 0.27,-0.90951 0.42122,-1.337867 0.30166,-0.853817 0.51195,-1.783883 0.82861,-2.609455 0.60356,-1.574435 1.17687,-3.556799 1.6737,-5.208905 1.05986,-3.524274 2.30743,-6.914912 3.37909,-10.449588 1.11267,0.09481 2.69506,-0.199877 3.80781,-0.01301 0.16512,0.497281 -0.58876,9.933183 -0.62444,10.367341 -0.14918,1.816692 -0.24825,3.530238 -0.41704,5.279869 -0.12032,1.248812 -0.19305,4.378633 -0.47712,5.360362 l -1.39812,0.0042 c -0.39834,0.05084 -0.36114,0.08513 -0.5523,0.251423 0.13185,0.234721 -0.0571,-0.280837 0.0426,0.192055 0.005,0.02259 0.011,0.05886 0.0165,0.08467 l 0.0678,0.309399 c 1.00573,0.119162 2.19234,-0.09481 3.09079,0.116009 l 0.15156,-0.692365 c 0.0436,-0.211734 0.13186,-4.020052 0.37982,-5.334152 0.26283,-1.883452 0.25624,-5.063412 0.60104,-7.519769 0.13105,-0.933388 0.65269,-6.99347 0.44926,-7.427405 -0.10028,0.401318 -0.11494,0.704454 -0.12942,1.070685 l -0.0723,0.80482 c -0.0847,0.228871 -0.006,0.08563 -0.1222,0.195639 -0.25451,-0.235184 -0.16324,-0.182466 -0.0555,-1.198914 0.0535,-0.503911 0.11708,-0.945824 0.16247,-1.479151 -0.48843,-0.12642 -0.55621,0.05005 -0.85062,-0.212391 -0.34612,-0.308599 0.19754,-0.322255 -1.4892,-0.307307 l -1.95622,0.03074 c -0.30671,0.0076 -0.43571,-0.02678 -0.64931,0.125522 l -6.00038,18.443847 c -0.66817,0.02553 -2.93338,0.112933 -3.43626,-0.02637 0.0674,-0.363011 0.77008,-3.30904 0.66026,-3.56333 z"
       style="fill:#232324;fill-rule:evenodd"
       id="path22" />
    <path
       d="m 152.7818,25.958987 c -0.25614,0.464846 -0.22594,0.561557 -0.29666,1.068115 -0.21502,1.541577 -0.86604,3.153297 -2.05262,4.180074 -1.66592,1.441755 -1.49983,-1.17409 -1.37008,5.399482 l 0.0886,3.463036 c 0.0258,0.969501 0.0769,0.879154 -0.27284,1.058449 -0.0208,-0.03031 -0.0613,-0.08962 -0.0759,-0.109585 l -0.18962,-0.254759 c -0.11089,0.512359 -0.55012,0.319816 -1.14465,0.303484 -0.52102,-0.01444 -0.92218,0.04464 -1.48745,-0.06427 0.10982,-1.150894 -0.10922,-5.138353 -0.0557,-6.477118 0.0238,-0.595424 0.0681,-1.706523 -0.0596,-2.210767 -0.54148,-0.155961 -1.28273,-0.151354 -1.74846,0.0069 l -1.96456,8.608773 -2.51755,0.02693 4.84881,-21.631304 c 1.087,-0.02264 2.41747,0.03633 3.48785,-0.04522 1.78175,-0.135775 2.3809,0.0376 3.63758,0.800037 l 0.15956,-0.04991 c -0.78788,-1.135406 -4.29623,-0.845245 -5.51381,-0.849112 -0.29811,-9.88e-4 -1.60964,-0.0035 -1.82695,0.04674 -0.14986,0.354494 -0.27525,0.925602 -0.35643,1.314749 -0.27704,1.332191 -0.0728,0.773836 -0.5387,1.000878 0.0603,0.234803 0.21325,0.119051 0.19019,0.515386 -0.026,0.44856 -0.14476,0.28484 -0.19476,0.591238 l -0.19698,1.351779 -0.2672,0.06796 c -0.25743,0.09491 -0.0752,-0.08299 -0.25823,0.133824 0.0774,0.06837 0.0531,0.02571 0.16884,0.08696 l 0.24942,0.139405 c -0.13922,0.639352 -0.0672,0.537423 -0.47923,0.785117 0.29275,0.474541 0.31125,0.02843 0.18946,0.616235 -0.10495,0.507218 -0.13554,0.100545 -0.20763,0.669784 -0.0339,0.267858 -0.0436,0.582987 -0.14498,0.852111 -0.37751,1.002037 -0.0605,0.02894 -0.53114,0.531025 0.50551,0.417356 0.33889,-0.109107 0.32945,0.439233 -0.008,0.478232 -0.13634,0.341137 -0.38897,0.572641 0.32474,0.623701 0.10792,0.115363 -0.0517,1.386461 -0.0241,0.192632 -0.10009,0.673752 -0.17758,0.840064 -0.38827,0.832785 -0.0161,-0.115903 -0.47425,0.440049 0.36382,0.352267 0.43869,0.03617 0.11653,0.797226 -0.28101,0.664305 0.0223,0.139319 -0.11734,0.90776 -0.30628,1.684735 -0.31199,1.477703 -0.77864,1.968965 0.52782,0.556262 0.18362,0.434427 0.0261,1.028814 -0.0452,0.1703 -0.15393,0.941129 -0.23061,1.31461 l -0.27711,0.118103 c -0.16979,0.07729 -0.01,-0.03413 -0.19819,0.09711 0.26366,0.592013 0.32631,-0.29862 0.29607,0.573468 -0.0168,0.484566 -0.082,0.201239 -0.36639,0.549806 0.35901,0.455643 0.12561,0.378922 0.0143,0.999047 -0.0391,0.218117 -0.14134,0.775132 -0.18903,1.169112 l 0.7883,0.06204 c -0.20623,0.494576 -0.35424,0.355737 -0.0624,0.599359 l 0.50428,0.468274 c 0.0179,-0.03215 0.0285,-0.171891 0.0418,-0.190685 0.15087,-0.219947 0.0936,-0.215719 1.02812,-0.18656 0.48573,0.01513 1.09198,0.0345 1.52981,-0.0084 0.369,-1.342336 1.63849,-8.171568 2.11625,-8.689253 0.55651,0.186074 0.2819,-0.114335 0.30095,1.29864 l -0.0167,2.903621 c -0.11595,0.854613 -0.0665,0.009 0.0417,0.682444 0.07,0.435135 -0.0464,0.432232 -0.23149,0.751081 0.40455,0.385748 0.40796,0.643099 -0.10037,1.000926 0.0467,0.06315 0.14058,0.153413 0.17773,0.197531 0.58914,0.70024 -0.0899,0.760352 -0.19446,0.825808 0.346,0.329894 0.41544,0.01162 0.53404,0.660527 0.33428,-0.05174 -0.0862,0.0148 0.17388,-0.08831 0.22073,-0.08776 -0.002,-0.09871 0.33468,-0.104642 l 0.0469,0.641173 3.38744,0.07954 c 0.13504,-0.790277 -0.12915,-7.395728 -0.0951,-9.019646 0.0109,-0.520009 0.20218,-0.526202 0.51465,-0.72645 0.86634,-0.554884 1.58045,-1.414861 2.01248,-2.442664 0.40114,-0.954605 1.28368,-4.356089 1.09092,-5.120735 -0.40256,0.436379 -0.47698,1.55369 -0.69579,2.204536 z"
       style="fill:#232324;fill-rule:evenodd"
       id="path26" />
    <path
       d="m 132.73307,38.701796 0.81175,0.379839 c 0.26139,-0.183085 -0.0673,-4.29e-4 0.3574,-0.09783 l 0.82895,-0.361263 c 0.76691,-0.552432 0.96305,-1.444773 1.22233,-2.549199 l 1.49281,-6.886069 c 0.1129,-0.640402 0.28155,-1.660822 0.40068,-2.302865 0.11028,-0.594721 0.9962,-3.32765 0.81524,-4.028156 -0.087,-0.337011 0.003,-0.185462 -0.30405,-0.414621 -1.62499,-0.08839 -1.92413,0.792709 -2.34971,2.682762 l -2.01647,9.166853 c -0.17276,0.788866 -0.36992,1.578026 -0.57247,2.359429 -0.52887,2.04179 -0.10146,1.135946 -0.0714,2.235488 z"
       style="fill:#ffffff;fill-rule:evenodd"
       id="path32" />
    <path
       d="m 129.78847,20.455343 c 1.24045,0.6001 0.88246,2.85415 0.63597,3.972254 -0.76992,3.493881 -0.83146,8.147108 -5.60516,8.428572 -0.64879,0.03818 -1.4833,-0.135418 -2.0582,0.138936 l -1.64358,7.782181 c -0.41844,0.106217 -1.14846,0.09013 -1.59178,-0.02183 l -0.1076,0.424725 -0.0679,0.408147 3.07501,0.115816 1.19358,-5.78479 c 0.0799,-0.574299 0.28891,-1.54766 0.46466,-2.113142 0.9263,-0.323167 2.94356,0.448326 5.03612,-1.300986 0.78446,-0.655811 0.68783,-0.729844 0.89809,-0.9257 0.31109,-0.289756 -0.0161,0.0038 0.40234,-0.186729 -0.21257,-0.47438 0.0813,-0.603118 0.27721,-1.182547 0.26667,-0.834103 1.27231,-4.382842 1.04581,-5.287388 -0.14999,0.258798 -0.14159,0.43684 -0.20201,0.730716 -0.0835,0.409339 -0.0882,0.594947 -0.32708,0.816155 -0.16916,-0.255386 0.30464,-2.080443 0.31192,-2.097956 l 0.36017,-0.351974 c -0.20169,-0.207782 -0.27505,-0.115215 -0.22677,-0.554279 0.0646,-0.585738 0.0775,-0.316317 0.2774,-0.459976 -0.0166,-0.02143 -0.0426,-0.04867 -0.0523,-0.06247 -0.56316,-0.78987 -0.18297,-2.131484 -2.21993,-2.8391 0.0663,0.110417 0.0833,0.235384 0.12331,0.351181 z"
       style="fill:#141414;fill-rule:evenodd"
       id="path34" />
    <path
       d="m 139.54268,19.514355 c 0.89637,0.240597 1.39943,1.283741 1.5337,2.16813 0.22722,1.498053 -1.60943,8.747408 -1.99365,10.432482 -0.8034,3.524561 -0.88172,7.126111 -3.8558,8.628867 -0.56852,0.287245 -1.92186,0.759879 -2.86425,0.46347 l -0.53831,0.159821 c 0.39545,0.158137 0.26525,0.06486 0.44723,0.285582 1.77412,0.223803 1.52068,0.614832 3.27882,0.11204 0.89598,-0.25634 1.71666,-0.786909 2.3226,-1.424402 1.21693,-1.280261 1.15516,-2.199985 1.53,-2.828073 0.27172,-0.45539 0.0196,-0.08462 0.24871,-1.415044 0.38044,-2.205693 0.27416,-0.952084 0.65063,-1.485421 -0.42461,-0.343708 -0.36459,-0.146969 -0.1049,-0.785411 l 0.33292,-2.012508 c 0.16126,-0.765652 0.0354,-0.616332 0.52918,-0.767904 -0.0562,-0.15129 -0.1694,-0.117343 -0.18918,-0.434157 -0.0229,-0.366713 0.12482,-0.434914 0.17688,-0.615286 0.0565,-0.195338 0.16008,-0.956769 0.25947,-1.396841 l 0.47365,-0.215657 c -0.68106,-1.319224 -0.30842,0.859355 -0.0174,-1.102895 0.0488,-0.328372 -0.15765,-0.118334 0.0472,-0.807401 0.1259,-0.423131 0.0449,-0.337581 0.15044,-0.891436 0.015,-0.07912 0.1477,-0.570515 0.17919,-0.622744 0.14274,-0.238689 0.0194,-0.06985 0.16898,-0.172026 l 0.22512,-0.08441 c -0.33888,-0.347239 -0.24723,0.06648 -0.24352,-0.422215 0.004,-0.554272 0.24334,-0.282236 0.22096,-0.832373 -0.0214,-0.52596 -0.10811,-0.433035 0.1919,-0.869975 -0.53345,-0.691323 -0.0707,-1.150607 -1.04904,-2.315924 -1.11162,-1.323921 -2.0744,-0.848403 -2.80125,-1.341841 l 0.34421,0.338524 c 0.28238,0.20766 0.13787,-0.05168 0.34567,0.255055 z"
       style="fill:#141414;fill-rule:evenodd"
       id="path36" />
    <path
       d="m 132.73307,38.701796 0.61504,0.184366 c -0.03,-1.099542 -0.45745,-0.193698 0.0714,-2.235488 0.20216,-0.781507 0.39971,-1.570563 0.57247,-2.359429 l 2.01647,-9.166853 c 0.42558,-1.890053 0.72472,-2.771153 2.34971,-2.682762 -0.0901,-0.391569 -0.1866,-0.626132 -0.7123,-0.793494 -1.08398,-0.34522 -2.26673,0.369725 -2.65074,1.598504 -0.63248,2.024692 -1.70589,8.019749 -2.32855,10.693602 -0.20648,0.88688 -0.38226,1.781674 -0.58995,2.700528 -0.21404,0.946764 -0.1666,1.63634 0.65643,2.061026 z"
       style="fill:#141414;fill-rule:evenodd"
       id="path42" />
    <path
       d="m 108.24889,20.032791 -0.34335,0.07747 -3.49762,18.063344 c 0.33793,0.225963 0.29286,0.148456 0.68324,0.124168 0.50424,-0.663606 0.48756,-2.603525 1.03965,-3.66904 0.42948,-1.065032 0.61804,-2.554999 0.82687,-3.581632 0.25322,-1.244466 0.58452,-2.585617 0.84305,-3.769133 0.52342,-2.397003 0.85522,-4.882106 1.3995,-7.213992 z"
       style="fill:#030203;fill-rule:evenodd"
       id="path46" />
    <path
       d="m 148.61267,40.763799 0.18962,0.254759 c 0.0146,0.01997 0.0552,0.07928 0.0759,0.109585 0.34972,-0.179295 0.2986,-0.08895 0.27284,-1.058449 l -0.0886,-3.463036 c -0.12975,-6.573572 -0.29584,-3.957727 1.37008,-5.399482 1.18658,-1.026777 1.8376,-2.638497 2.05262,-4.180074 0.0707,-0.506558 0.0405,-0.603269 0.29666,-1.068115 0.43906,-0.829941 0.75594,-2.794157 0.68789,-3.60272 -0.0744,-0.878797 -0.63685,-2.093152 -1.70123,-2.324932 l -0.15956,0.04991 c 0.28321,0.544555 0.95933,1.024501 0.80724,2.596294 -0.10578,1.092963 -0.54558,2.644295 -0.81807,3.772512 -0.79774,3.301735 -0.81271,3.747861 -3.15929,5.316988 -0.091,0.389201 0.1125,8.819019 0.17389,8.996764 z"
       style="fill:#030203;fill-rule:evenodd"
       id="path52" />
    <path
       d="m 146.04148,29.982047 c 0.69851,0.134055 0.8166,0.06693 1.13446,-0.03518 0.38015,-0.12207 0.61323,-0.273297 0.88411,-0.555919 0.89873,-0.937744 1.04518,-2.355964 1.28533,-3.650935 0.21903,-1.180639 1.13889,-2.852118 -0.0854,-3.460727 l -0.50214,0.198708 c 0.3337,0.237874 0.053,-0.128446 0.32066,0.21005 -0.25618,0.153216 -0.20279,0.127043 -0.58981,0.158858 -0.15706,0.01279 -0.19994,0.0036 -0.34614,0.02838 -0.16393,0.02761 -0.13649,0.02451 -0.23979,0.07116 -0.64439,0.774819 -1.28239,5.623199 -1.86127,7.0356 z"
       style="fill:#ffffff;fill-rule:evenodd"
       id="path56" />
    <path
       d="m 125.01575,22.178902 -1.72282,8.172574 1.38988,0.113496 c 0.42726,-1.216675 0.55268,-2.48762 0.83277,-3.699834 0.28368,-1.228332 0.49874,-2.428152 0.87726,-3.670413 0.39958,0.01907 0.76581,0.02661 1.08565,-0.141639 -0.0866,-0.10552 -0.0406,-0.03748 -0.20443,-0.157786 l -0.20781,-0.149378 c -0.0148,-0.0109 -0.049,-0.02877 -0.0674,-0.04974 0.24338,-0.07528 0.46568,-0.01509 0.78604,-0.179887 -0.63272,-0.425147 -1.26884,-0.383259 -2.06965,-0.354548 z"
       style="fill:#141414;fill-rule:evenodd"
       id="path60" />
    <path
       d="m 146.04148,29.982047 c 0.57888,-1.412401 1.21688,-6.260781 1.86127,-7.0356 0.1033,-0.04665 0.0759,-0.04355 0.23979,-0.07116 0.1462,-0.02481 0.18908,-0.01559 0.34614,-0.02838 0.38702,-0.03181 0.33363,-0.0056 0.58981,-0.158858 -0.26761,-0.338496 0.013,0.02782 -0.32066,-0.21005 l 0.50214,-0.198708 c -0.23429,-0.50691 -0.62282,-0.483367 -1.3484,-0.467314 -0.54438,0.01212 -0.97159,-0.05183 -1.42914,0.06627 l -1.84279,7.930994 c 0.47933,0.129057 0.97934,-0.03657 1.40184,0.172811 z"
       style="fill:#141414;fill-rule:evenodd"
       id="path62" />
    <path
       d="m 112.91173,32.982162 1.37521,0.04382 c 0.22437,-0.983024 1.56572,-4.697734 1.62349,-5.258385 0.19183,-1.863445 0.21425,-3.307136 0.71101,-5.242201 -0.98684,-0.37706 -0.55948,0.144936 -1.18516,2.2258 -0.69663,2.316637 -2.07538,6.303852 -2.52455,8.230961 z"
       style="fill:#141414;fill-rule:evenodd"
       id="path64" />
    <path
       d="m 109.11407,40.754596 -0.14385,0.536861 0.21364,0.05735 c 0.24556,-0.117445 0.0657,-0.04088 0.30504,0.0249 0.45729,0.14489 1.73235,0.186933 2.16737,0.06601 0.43127,-1.043849 1.01576,-3.275824 1.42586,-4.561386 0.24288,-0.760762 0.17312,-1.010836 0.96757,-0.796309 0.24283,-0.119213 -0.0229,-0.05831 0.41256,-0.08616 0.84969,-0.05423 0.63961,0.125107 0.77153,-0.590947 -0.35397,-0.117003 -2.66662,-0.20185 -3.04494,-0.104346 l -1.68071,5.415117 z"
       style="fill:#141414;fill-rule:evenodd"
       id="path68" />
  </g>
  <g
     id="g1076"
     transform="matrix(0.93011445,0,0,0.71892769,-26.201539,18.894375)">
    <path
       d="m 119.05417,72.217883 c -0.14205,0.134104 0.0212,-0.113798 -0.18351,0.252509 l -0.39439,0.918211 c -0.21427,0.59336 -0.19398,0.721269 -0.51874,1.256349 -0.0787,0.129446 -0.24122,0.792469 -0.67754,1.670873 -0.2531,0.509554 -0.0107,-0.05328 -0.13745,0.57481 -0.12971,0.643248 -0.42162,0.827785 -0.52133,1.055021 -0.12202,0.277679 0.0139,0.114509 -0.10273,0.626043 -0.1792,0.785071 -0.42603,0.63021 -0.54355,0.983428 -0.016,0.0482 0.0443,0.610057 -0.28822,1.169554 -0.2906,0.488741 0.0365,-0.03567 -0.42203,0.362213 0.14314,0.263632 0.13072,0.448309 -0.0108,0.829165 -0.2254,0.605496 -0.28618,0.554528 -0.53794,0.683149 -0.0166,0.0085 -0.0555,0.01733 -0.0803,0.03222 0.23912,0.464929 0.24795,0.210962 -0.006,0.883461 -0.26079,0.690842 -0.33584,0.500327 -0.63788,0.656991 l 0.0876,0.134863 c 0.009,0.02017 0.059,0.111458 0.0666,0.140428 0.0187,0.07117 0.0955,-0.08414 -0.003,0.316909 -0.0768,0.30978 -0.18193,0.317326 -0.26688,0.747186 l -0.23738,0.095 c -0.26763,0.117122 -0.0244,-0.0874 -0.24091,0.119415 l 0.23127,0.404543 -1.03763,2.645793 c -0.0352,0.0095 0.0143,0.02794 -0.22142,-0.0117 l -0.0847,-0.02115 c -0.003,-7.77e-4 -0.0147,-0.0089 -0.0229,-0.0098 -0.0858,0.293182 -0.06,0.122241 0.018,0.250077 0.006,0.0095 0.0288,0.03483 0.0363,0.04357 l 0.16245,0.106989 c -0.6257,1.291153 -0.23018,0.536816 -0.57881,1.56202 -0.15959,0.469283 -0.14574,0.321743 -0.34184,0.62088 -0.25724,0.39208 -0.0377,0.836741 -0.53384,1.466087 -0.31649,0.401466 -0.18738,-0.104352 -0.2205,0.440024 -0.0663,1.091542 -0.34856,1.099552 -0.66677,1.33626 0.34163,0.980635 -0.53276,1.309428 -0.57618,1.730333 l 0.72501,0.06258 c -0.10069,0.205024 -0.043,0.129778 -0.1851,0.272373 0.53063,-0.108769 -0.0107,-0.340263 0.67482,-0.409288 0.18683,-0.01879 0.69527,0.02096 0.94315,0.02237 0.53516,0.003 1.20598,0.0047 1.80884,0.05638 0.64366,-1.551371 2.236,-6.792427 2.86771,-7.677902 l 4.40209,0.01858 c 0.093,0.455705 7e-5,0.797184 -0.0978,1.331665 l -0.42033,0.09546 0.37583,0.06985 c -0.26202,1.08102 -0.37279,2.541514 -0.5295,3.679635 -0.0727,0.528283 -0.39418,2.188967 -0.25486,2.563073 0.12844,0.344791 0.0683,-0.117225 0.12371,0.381 0.0176,0.156583 -0.0313,0.243595 -0.006,0.441305 l 0.12188,-0.772476 3.63771,0.0083 c 0.53237,-2.403717 2.27462,-19.137374 2.66671,-22.410421 0.29238,-2.441933 0.51068,-5.192763 0.93103,-7.521107 -0.65859,-0.168289 -5.4302,-0.0577 -6.14317,0.03378 z"
       style="fill:#0f52ff;fill-rule:evenodd"
       id="path2" />
    <path
       d="m 97.827707,96.246214 c 0.184088,-0.608592 1.935948,0.06073 3.208523,-0.24264 l 2.59678,-10.837275 c 1.3143,-0.277488 2.85808,0.331523 5.1977,-0.441583 0.68716,-0.226984 1.557,-0.696036 2.05298,-1.125604 0.57401,-0.497072 1.16991,-1.068512 1.66084,-1.811881 1.19484,-1.809095 1.99253,-6.493868 2.61115,-8.95212 0.23439,-0.931164 0.32183,-1.362947 0.26664,-2.273974 -0.003,-0.04366 -0.0122,-0.314769 -0.008,-0.34004 0.0511,-0.275986 -0.008,-0.141628 0.13363,-0.280055 -0.27771,-1.100166 -0.28003,-1.100787 -0.84114,-1.843418 -1.82523,-2.415095 -7.02657,-1.587814 -10.27641,-1.57044 -0.42278,1.056266 -1.4122,6.294681 -1.73118,6.652515 l -0.20068,0.146969 c 0.17757,0.492542 0.20728,0.01 0.10353,0.60004 L 102.247,75.54369 c -0.31434,0.795242 0.0572,-0.110861 -0.45135,0.449603 0.50534,0.539681 0.32935,-0.02677 0.005,0.921003 l -0.0362,0.561449 c -0.0161,0.20606 -0.01,0.128446 -0.0514,0.320613 -0.0771,0.356178 -0.15644,0.714041 -0.24613,1.083931 -0.21903,0.9036 -0.14639,0.353557 -0.48783,0.777017 0.46126,0.604894 0.0197,0.537308 -0.0421,1.264172 -0.0247,0.29113 -0.025,0.428129 -0.11735,0.7563 -0.0335,0.117132 -0.0674,0.263218 -0.13797,0.344529 l -0.40787,0.186904 c 0.25425,0.355518 0.34862,0.01183 0.27216,0.546771 -0.0877,0.613609 -0.22902,-0.222869 -0.45471,1.916828 -0.575111,0.207934 -0.327041,-0.0066 -0.493454,0.210351 0.416574,0.554512 0.310647,-0.260267 0.326309,0.448228 0.0092,0.406848 -0.224978,0.435097 -0.405631,0.55834 0.176105,0.53356 0.235381,0.01638 0.127953,0.610106 -0.06426,0.354963 -0.308602,1.629657 -0.514797,1.845132 L 98.811947,88.5555 c 0.02237,0.02546 0.07195,0.02435 0.0732,0.07107 l 0.161628,0.218994 c 0.05365,0.153309 0.0627,0.09093 -0.01555,0.313042 -0.144803,0.411752 -0.229014,0.121362 -0.244239,0.635645 -0.01271,0.432652 -0.0138,0.922771 -0.294368,1.195963 -0.308873,0.300394 -0.136078,-0.102616 -0.353073,0.2401 l 0.26683,0.155561 c 0.01052,0.0059 0.0439,0.02512 0.05252,0.03002 0.0081,0.0045 0.03503,0.0157 0.04994,0.02767 -0.186964,0.821399 -0.09748,0.336746 -0.47054,0.787447 0.347821,0.563834 0.139716,0.405477 -0.01943,1.019509 -0.09349,0.360488 -0.163586,0.901064 -0.249706,1.306696 l -0.41145,0.232325 c 0.04963,0.218906 0.05947,0.06666 0.117994,0.201402 0.253846,0.584206 -0.03288,0.554277 -0.190568,1.006783 z"
       style="fill:#0f52ff;fill-rule:evenodd"
       id="path4" />
    <path
       d="m 141.34429,69.983869 -0.43685,0.578651 c -0.1287,0.227646 -0.23139,0.406876 -0.36772,0.617777 -1.26585,1.958198 -3.72552,6.571277 -4.73404,8.041653 -0.30656,0.44709 -0.14751,0.363508 -0.52753,0.227 -0.24626,0.297396 -0.63965,0.302762 -1.14516,0.130353 l 3.27836,-12.429319 c 0.31541,-0.112292 -0.21522,-0.07464 0.42729,-0.07393 -0.46125,-0.126594 -0.16133,-0.412512 -0.0712,-0.936425 -0.39726,-0.189993 -3.65364,-0.119607 -3.9719,0.03654 l -0.23826,0.504006 c -0.0558,0.185161 -0.1134,0.454124 -0.16125,0.649704 l -1.20789,4.02223 -0.33901,0.245939 0.37338,0.214236 c -0.12526,0.553645 -0.0531,0.522258 -0.44045,0.687117 0.0902,0.58354 0.21578,-0.0279 0.10822,0.597985 l -0.37423,1.503266 c -0.15659,0.501353 -0.1185,0.343741 -0.43658,0.559881 0.17125,0.595722 -0.02,1.443293 -0.25796,2.108687 -0.30612,0.856144 -0.0428,0.04258 -0.45755,0.554677 0.36674,0.608349 0.10695,0.345763 -0.28418,2.322072 -0.0255,0.01626 -0.0582,0.01028 -0.0778,0.04633 l -0.33477,0.185683 c 0.0975,0.352954 0.26411,0.117044 0.16341,0.613395 -0.0946,0.466108 -0.13461,0.08589 -0.21169,0.666005 -0.17832,1.343214 -0.17507,1.0158 -0.67203,1.382574 0.31039,0.424188 0.25358,0.02726 0.21251,0.517847 -0.0353,0.421211 -0.13851,0.22212 -0.21708,0.585672 -0.0747,0.345327 -0.13393,0.840993 -0.26153,1.337692 -0.28849,0.08213 -0.035,-0.07285 -0.40995,0.118536 l 0.15386,0.187306 c 0.14652,0.239067 0.11089,-0.120196 0.0996,0.26593 -0.0114,0.391705 -0.19717,0.378464 -0.26537,0.586606 -0.0916,0.279114 0.0289,0.11903 -0.0351,0.551718 -0.0428,0.289491 -0.1531,0.54049 -0.21578,0.850531 -0.0217,0.0121 -0.0518,4.15e-4 -0.0686,0.02924 -0.11192,0.190111 -0.0232,-0.0557 -0.39481,0.189161 0.37221,0.524197 0.32649,-0.01998 0.25861,0.527404 -0.046,0.372177 -0.16911,0.257505 -0.25,0.510698 -4.1e-4,0.0011 -0.17798,1.117824 -0.23511,1.41372 -0.16593,0.04861 -0.24017,-0.04023 -0.43844,0.110902 0.0435,0.268504 -0.0372,0.05048 0.13612,0.209881 l 0.17886,0.102899 c -0.17912,0.91999 -0.34559,0.333105 -0.34828,1.016185 -0.004,1.069857 -0.9372,3.338492 -0.99002,4.370587 l 0.36631,0.138217 c 0.11708,-0.202808 0.065,-0.181754 0.74262,-0.16388 0.68718,0.01828 2.29785,0.104489 2.7039,-0.01571 L 133.2,83.152067 l 1.53998,-0.0491 -0.0603,1.498334 c -0.0283,0.01469 -0.18346,0.08543 -0.18808,0.08761 0.35959,0.184144 0.39153,2.464305 0.40766,2.911414 0.0559,1.549168 0.46301,8.758888 0.6687,9.366323 0.15435,-0.451228 -0.18501,-0.298247 0.49677,-0.333594 0.70351,-0.03646 2.83517,0.165122 3.81858,0.07239 0.18884,-0.553691 -0.23093,-3.301671 -0.3128,-4.137853 l -0.80698,-8.180299 c -0.19862,-2.21063 -0.62093,-2.709739 0.13643,-3.889933 1.51995,-2.369445 3.0194,-4.796458 4.49808,-7.185348 0.66371,-1.072152 4.27428,-6.621766 4.4822,-7.197986 l -4.22644,0.026 c -0.7597,1.1746 -1.52806,2.738937 -2.30946,3.843846 z"
       style="fill:#0f52ff;fill-rule:evenodd"
       id="path6" />
    <path
       d="m 146.24217,90.861832 c 0.24621,-0.333128 0.29983,-0.219891 1.0402,-0.374228 0.34126,-0.0712 0.73734,-0.166952 1.12125,-0.250536 0.69436,-0.151448 1.72468,-0.335036 2.20248,-0.544511 0.84974,-2.249004 3.08336,-10.215243 3.90632,-13.049728 l 2.87128,-9.851438 c 0.22318,-0.768006 0.5527,-2.637626 1.12635,-3.046797 -0.36156,-0.07638 -0.38957,0.361595 0.0923,-1.371538 -0.86373,-0.125943 -5.62168,1.214071 -6.9658,1.481913 -0.89505,2.800986 -2.4913,10.151922 -3.3473,13.521591 -0.53405,2.10283 -0.97152,4.441389 -1.48273,6.563281 -0.55661,2.309533 -1.15243,4.501099 -1.65413,6.774102 0.74106,0.197426 0.77727,-0.1224 1.08976,0.147889 z"
       style="fill:#0f52ff;fill-rule:evenodd"
       id="path10" />
    <path
       d="m 97.827707,96.246214 -0.225819,1.095067 4.198532,0.214158 2.59871,-10.947636 c 3.08706,-0.07062 5.40177,0.256521 7.88054,-2.14754 0.83721,-0.812085 1.0915,-1.292438 1.66644,-2.356284 0.026,-0.0073 0.0782,-0.02782 0.0811,-3.09e-4 l 0.3288,0.110152 c -2.1e-4,-0.334968 0.17966,0.142039 -0.25369,-0.410548 0.37364,-1.167268 1.88298,-6.629028 1.72074,-7.383942 -0.43252,0.586438 -0.24017,1.983942 -0.90415,2.388682 0.0652,-1.053428 0.68088,-2.614875 0.90659,-3.79414 0.27239,-1.423403 -0.008,-1.970769 -0.27714,-3.072832 -0.14175,0.138427 -0.0826,0.0041 -0.13363,0.280055 -0.005,0.02524 0.005,0.296382 0.008,0.34004 0.0552,0.911027 -0.0323,1.34281 -0.26664,2.273974 -0.61862,2.458252 -1.41631,7.143025 -2.61115,8.95212 -0.49093,0.743369 -1.08683,1.314809 -1.66084,1.811881 -0.49598,0.429568 -1.36582,0.89862 -2.05298,1.125604 -2.33962,0.773106 -3.8834,0.164095 -5.1977,0.441583 l -2.59678,10.837275 c -1.272575,0.303369 -3.024435,-0.365952 -3.208523,0.24264 z"
       style="fill:#141414;fill-rule:evenodd"
       id="path20" />
    <path
       d="m 147.13396,65.906927 c -0.62442,0.106827 -1.90291,0.06325 -2.65086,0.07237 l -0.60739,0.04327 c -0.20866,0.04886 -0.0814,0.0018 -0.23891,0.08527 l -2.29251,3.876029 c 0.7814,-1.104909 1.54976,-2.669246 2.30946,-3.843846 l 4.22644,-0.026 c -0.20792,0.57622 -3.81849,6.125834 -4.4822,7.197986 -1.47868,2.38889 -2.97813,4.815903 -4.49808,7.185348 -0.75736,1.180194 -0.33505,1.679303 -0.13643,3.889933 l 0.80698,8.180299 c 0.0819,0.836182 0.50164,3.584162 0.3128,4.137853 -0.98341,0.09274 -3.11507,-0.108848 -3.81858,-0.07239 -0.68178,0.03535 -0.34242,-0.117634 -0.49677,0.333594 l 0.0967,1.304276 5.33412,0.127622 c 0.0788,-0.456259 -0.56498,-6.451871 -0.65596,-7.45034 -0.0797,-0.874931 -0.44857,-6.512714 -0.97432,-7.328588 -0.12916,0.866082 0.467,3.548067 0.11113,3.950471 -0.15167,-0.394496 -0.25465,-2.129778 -0.31722,-2.777959 -0.0843,-0.874621 -0.41936,-2.135606 0.0343,-2.85532 l 6.3225,-9.953162 c 0.57503,-0.921262 3.09368,-4.433464 3.27164,-5.000631 l -1.19887,-0.03395 0.45847,-0.96999 z"
       style="fill:#141414;fill-rule:evenodd"
       id="path24" />
    <path
       d="m 119.05417,72.217883 2.1484,-5.683101 c 0.71297,-0.09149 5.48458,-0.202071 6.14317,-0.03378 -0.42035,2.328344 -0.63865,5.079174 -0.93103,7.521107 -0.39209,3.273047 -2.13434,20.006704 -2.66671,22.410421 l -3.63771,-0.0083 -0.12188,0.772476 -0.0878,0.541637 c 0.39089,0.140353 0.83094,0.09107 1.28781,0.121967 0.62813,0.04242 0.89987,-0.07112 1.12776,0.376204 0.33949,-0.339296 0.0323,-0.375125 0.57078,-0.301858 0.65792,0.08922 0.12634,0.03696 0.53397,0.370218 0.20684,-0.249569 0.0897,-0.319362 0.42188,-0.370536 0.2251,-0.03451 0.22695,0.01153 0.34023,0.08216 0.023,0.01433 0.0463,0.04066 0.0668,0.05713 0.0198,0.01576 0.0397,0.04637 0.0572,0.06253 0.31793,0.296384 0.18574,0.662963 0.36795,-0.851998 l 0.28491,-2.188015 c 0.18508,-0.745191 -0.0315,-0.226898 0.41714,-0.564575 -0.29432,-0.364391 -0.35973,0.01107 -0.29714,-0.540108 0.0722,-0.636695 0.0919,-0.162359 0.35915,-0.585392 -0.52586,-0.457698 -0.24627,-0.139182 -0.0353,-0.941935 0.16034,-0.609986 -0.20859,0.27695 0.0506,-1.023473 0.005,-0.02093 0.0119,-0.05219 0.0142,-0.07229 0.003,-0.01839 0.005,-0.05008 0.005,-0.06822 6.4e-4,-0.01784 -0.002,-0.0494 -0.003,-0.06712 -0.002,-0.07778 -0.0439,-0.184752 -0.0378,-0.38033 0.0435,-1.374566 1.00032,-8.335316 1.21707,-9.785222 l 0.84815,-6.382253 c 0.17805,-1.636996 0.77083,-5.038891 0.56168,-6.374118 -0.29911,0.399186 -0.33074,2.256691 -0.47873,2.631253 l -0.13597,0.215346 c -0.0115,0.01606 -0.0368,0.04729 -0.0606,0.06523 l 0.43372,-3.589143 -0.54467,-0.198537 0.12744,-1.140167 c -0.52211,-0.09807 -5.82285,1.42e-4 -6.17845,0.09204 l -0.96264,2.561015 -0.42444,0.116206 c 0.0265,0.630134 0.36425,-0.274477 0.10731,0.696405 -0.0551,0.207829 -0.23184,0.524878 -0.32969,0.84289 l -0.33993,0.023 c 0.0536,0.645774 0.38786,-0.296518 0.10286,0.629162 -0.11217,0.364175 -0.21889,0.521724 -0.32267,0.961965 z"
       style="fill:#232324;fill-rule:evenodd"
       id="path28" />
    <path
       d="m 158.51005,63.744594 c -0.57365,0.409171 -0.90317,2.278791 -1.12635,3.046797 l -2.87128,9.851438 c -0.82296,2.834485 -3.05658,10.800724 -3.90632,13.049728 -0.4778,0.209475 -1.50812,0.393063 -2.20248,0.544511 -0.38391,0.08358 -0.77999,0.179334 -1.12125,0.250536 -0.74037,0.154337 -0.79399,0.0411 -1.0402,0.374228 l -0.31093,1.275175 c 0.70258,0.0605 4.485,-0.884329 5.35922,-1.097323 1.00411,-2.545035 3.14674,-10.365249 4.072,-13.489946 1.3661,-4.612288 2.7485,-9.272695 4.02661,-13.897378 z"
       style="fill:#030203;fill-rule:evenodd"
       id="path30" />
    <path
       d="m 105.6398,81.416937 c 0.73034,0.419003 2.42246,-0.02673 2.83109,-0.277515 0.7467,-0.458461 1.27937,-1.469652 1.5464,-2.600679 0.27871,-1.180799 0.56346,-2.353249 0.84244,-3.542777 0.16209,-0.691096 0.91918,-2.790586 0.42172,-3.39638 -0.44213,-0.218061 -0.70788,-0.264836 -1.1989,-0.293083 -0.1153,-0.0067 -0.44845,-0.01633 -0.5331,-0.008 l -0.50525,0.175514 c 0.56424,0.09114 0.59777,0.03904 0.74957,0.266896 -0.29469,0.11919 -0.43479,0.135487 -0.80465,0.144983 -0.1439,0.0035 -0.32489,-0.0076 -0.45332,2.82e-4 l -0.33849,0.05434 c -0.19125,-0.812794 -2.36242,8.857991 -2.55751,9.476367 z"
       style="fill:#ffffff;fill-rule:evenodd"
       id="path38" />
    <path
       d="m 145.2651,98.789682 c 0.78818,0.323312 1.85574,1.212408 3.6668,0.167445 0.92863,-0.535813 1.43073,-1.335197 1.69988,-2.459444 0.0682,-0.28557 0.0483,-0.424558 0.0818,-0.64015 0.11085,-0.715074 -0.12532,-0.276454 0.25782,-0.458389 -0.0114,-0.02758 -0.0267,-0.09556 -0.0415,-0.07934 l -0.1292,-0.227181 c -0.0767,-0.126263 -0.12754,-0.188949 -0.21172,-0.338842 -0.35269,-0.629119 -0.69232,-1.300396 -1.34774,-1.734731 -1.67603,-1.110735 -4.792,0.277494 -4.97072,2.882915 -0.0499,0.72653 0.17888,1.559435 0.55929,2.182835 z"
       style="fill:#0f52ff;fill-rule:evenodd"
       id="path40" />
    <path
       d="m 126.22267,96.660694 -0.34267,1.294314 4.55201,0.14333 c 0.86915,-2.717856 1.90885,-7.309413 2.78722,-10.487464 0.1573,-0.567733 0.30234,-1.13606 0.45204,-1.706346 0.21004,-0.803206 0.0945,-1.325704 0.82028,-1.215618 0.005,-0.0022 0.15982,-0.07292 0.18808,-0.08761 l 0.0603,-1.498334 -1.53998,0.0491 -3.53081,13.329033 c -0.40605,0.120203 -2.01672,0.03399 -2.7039,0.01571 -0.67757,-0.01787 -0.62554,-0.03893 -0.74262,0.16388 z"
       style="fill:#141414;fill-rule:evenodd"
       id="path44" />
    <path
       d="m 110.10067,96.624583 -0.0209,0.934318 4.13934,0.117856 2.80115,-7.561665 1.6285,-0.06844 c 0.57094,0.0086 1.10274,-0.05124 1.63042,0.0152 l 0.42033,-0.09546 c 0.0979,-0.534481 0.19082,-0.87596 0.0978,-1.331665 l -4.40209,-0.01858 c -0.63171,0.885475 -2.22405,6.126531 -2.86771,7.677902 -0.60286,-0.05169 -1.27368,-0.05337 -1.80884,-0.05638 -0.24788,-0.0014 -0.75632,-0.04115 -0.94315,-0.02237 -0.68552,0.06902 -0.14419,0.300519 -0.67482,0.409288 z"
       style="fill:#141414;fill-rule:evenodd"
       id="path48" />
    <path
       d="m 118.9125,85.072216 3.59639,-9.52846 c 0.39765,-0.631707 0.41615,-1.59173 0.53319,-2.442321 0.11886,-0.865528 0.41528,-1.7809 0.63408,-2.636111 -0.36041,-0.163346 -0.47554,-0.125452 -0.86077,-0.07908 l -1.19526,3.842577 c -0.44338,1.207695 -0.8775,2.425637 -1.33184,3.635987 -0.93088,2.479972 -1.81882,4.958096 -2.74836,7.440396 0.24081,0.04361 0.63613,0.09829 0.86456,0.07802 0.60092,-0.05349 0.18932,0.13997 0.50801,-0.311015 z"
       style="fill:#141414;fill-rule:evenodd"
       id="path50" />
    <path
       d="m 105.6398,81.416937 c 0.19509,-0.618376 2.36626,-10.289161 2.55751,-9.476367 l 0.33849,-0.05434 c 0.12843,-0.0079 0.30942,0.0032 0.45332,-2.82e-4 0.36986,-0.0095 0.50996,-0.02579 0.80465,-0.144983 -0.1518,-0.227853 -0.18533,-0.175755 -0.74957,-0.266896 l 0.50525,-0.175514 c 0.0847,-0.0084 0.4178,0.0013 0.5331,0.008 0.49102,0.02825 0.75677,0.07502 1.1989,0.293083 0.46937,0.235402 0.12972,0.118616 0.28296,-0.06922 -0.27032,-0.829115 -0.7123,-1.262163 -1.85668,-1.324058 -0.44883,-0.02419 -2.07413,-0.03378 -2.44847,0.0562 l -2.75534,11.313878 c 0.19195,0.106612 0.34995,0.154849 0.59131,0.150468 0.67734,-0.01221 0.37931,0.03983 0.54457,-0.309916 z"
       style="fill:#141414;fill-rule:evenodd"
       id="path54" />
    <path
       d="m 135.27815,79.44895 3.21034,-12.305709 -0.64985,-0.06718 c -0.64251,-7.17e-4 -0.11188,-0.03836 -0.42729,0.07393 l -3.27836,12.429319 c 0.50551,0.172409 0.8989,0.167043 1.14516,-0.130353 z"
       style="fill:#141414;fill-rule:evenodd"
       id="path58" />
    <path
       d="m 118.9125,85.072216 c 0.0817,0.288383 2.18018,0.159197 2.26032,0.146816 0.0661,-0.09286 0.0343,0.01096 0.10181,-0.226982 l 0.31627,-2.13582 c 0.15934,-1.386712 1.00737,-6.717984 0.91799,-7.312474 z"
       style="fill:#ffffff;fill-rule:evenodd"
       id="path66" />
    <path
       d="m 145.2651,98.789682 c 0.36378,0.69514 0.67796,1.445938 1.68961,1.784508 2.52233,0.84388 4.80365,-1.520638 4.45473,-4.032328 -0.087,-0.625522 -0.30634,-0.685028 -0.43807,-1.142718 -0.38314,0.181935 -0.14697,-0.256685 -0.25782,0.458389 -0.0334,0.215592 -0.0134,0.354606 -0.0818,0.64015 -0.26915,1.124247 -0.77125,1.923631 -1.69988,2.459444 -1.81106,1.044963 -2.87862,0.155867 -3.6668,-0.167445 z"
       style="fill:#030203;fill-rule:evenodd"
       id="path70" />
  </g>
  <g
     id="g1080"
     transform="matrix(0.76650391,0,0,0.76650391,-5.793476,29.544777)">
    <path
       d="m 55.3615,50.8904 0.0468,7.7527 0.0025,16.6156 C 43.0713,76.0105 30.8548,67.0141 26.0702,55.5931 21.9237,45.6951 23.1925,35.2426 28.6223,26.083 28.9332,23.3323 28.4956,16.5169 28.4814,13.9513 26.314,14.8972 22.8192,20.5591 21.5203,22.8172 14.5284,34.9741 14.082,49.7395 20.435,61.7063 28.639,77.1602 45.4397,85.7242 63.0388,82.3289 l 0.0581,-23.6554 c 5.1313,-0.3342 10.1299,0.8422 15.3723,-3.8719 5.205,-4.6805 6.4945,-13.994 0.8082,-20.503 -4.3401,-4.9677 -17.3427,-5.0354 -23.7648,-4.8585 z m 7.7377,-0.0153 c 4.792,0.2696 12.2927,0.5105 12.2119,-6.8803 -0.0294,-2.7144 -1.576,-4.8149 -3.6958,-5.8736 -2.2368,-1.1175 -5.4286,-1.0749 -8.3837,-0.9343 z"
       style="fill:#24aadf;fill-rule:evenodd"
       id="path72" />
    <path
       d="M 55.4083,58.6431 55.3615,50.8904 39.2153,50.8921 39.1516,15.6869 C 43.7233,13.4765 46.0828,11.9024 51.9157,11.2337 78.0282,8.24 96.2779,35.5428 84.111,58.5224 81.1222,64.1679 76.4025,68.6526 71.0308,71.5997 68.495,72.991 65.5407,73.7609 64.77,74.236 l -0.046,7.7981 C 70.0787,81.3271 76.9725,77.2968 80.2108,74.7916 94.9243,63.4088 100.0474,42.1943 91.6311,25.7882 88.5963,19.8729 86.074,16.8069 81.9357,12.9257 78.8995,10.0783 72.5006,6.3408 67.1474,4.8923 52.9373,1.0474 41.2481,4.6488 31.5028,11.4214 l -0.0351,47.135 z"
       style="fill:#0f52ff;fill-rule:evenodd"
       id="path74" />
  </g>
  <g
     id="Layer1000"
     transform="translate(97.308764,39.135046)">
    <path
       d="m 113.877,63.3298 -4.9304,0.0289 0.038,-9.2863 c -1.0758,0.0092 -2.3212,-0.1683 -3.205,0.355 -0.7671,0.4542 -1.1118,1.1265 -1.1979,2.3564 -0.0931,1.3291 -0.5173,5.6952 -0.5,6.5893 1.045,0.0383 9.5156,0.0981 9.7953,-0.0433 z"
       style="fill:#26a9e1;fill-rule:evenodd"
       id="path76" />
    <path
       d="m 113.877,63.3298 c -0.1402,-2.1863 -0.334,-4.4079 -0.5123,-6.5792 -0.0972,-1.1845 -0.4559,-1.895 -1.1973,-2.3292 -0.8745,-0.5123 -2.12,-0.3508 -3.1828,-0.349 l -0.038,9.2863 z"
       style="fill:#1d75bd;fill-rule:evenodd"
       id="path78" />
    <path
       d="m 102.5759,66.0361 12.8048,0.0177 c 0.1881,-1.9727 -0.4294,-2.3306 -2.006,-2.3267 l -8.7367,0.0202 c -1.7939,-0.0034 -2.1786,0.4672 -2.0621,2.2888 z"
       style="fill:#444446;fill-rule:evenodd"
       id="path80" />
    <path
       d="m 107.5696,54.9043 c -0.5704,-0.242 -1.4801,0.293 -1.7468,0.5787 -0.4185,0.4484 -0.5825,1.1716 -0.6306,1.9951 -0.0343,0.5876 -0.4307,4.6127 -0.3087,4.8116 0.3037,0.495 0.5037,-0.23 0.5224,-0.4853 l 0.2661,-3.6345 c 0.0303,-0.7933 0.0864,-1.5227 0.4665,-2.1527 0.5203,-0.8621 1.6436,-0.3646 1.4311,-1.1129 z"
       style="fill:#fdfdfd;fill-rule:evenodd"
       id="path82" />
    <path
       d="m 112.9805,54.2562 c 0.4802,0.0951 0.9472,-0.447 1.51,-0.8624 0.4554,-0.336 0.9399,-0.7 1.4115,-1.0436 l 2.1111,-1.5706 c 0.1819,-0.1438 0.638,-0.4091 0.3258,-0.7228 -0.2319,-0.2331 -0.5906,0.1403 -0.77,0.2758 l -4.2232,3.142 c -0.3278,0.2354 -0.5072,0.2762 -0.3652,0.7816 z"
       style="fill:#26a9e1;fill-rule:evenodd"
       id="path84" />
    <path
       d="m 104.7128,54.5838 c 0.3159,-0.4978 0.0223,-0.5644 -0.9128,-1.2539 l -2.8107,-2.098 c -0.2206,-0.1633 -0.4625,-0.3373 -0.7064,-0.5211 -1.287,-0.9698 -1.093,-0.0315 -0.6065,0.3202 l 4.2282,3.1362 c 0.2581,0.1915 0.4097,0.4318 0.8082,0.4166 z"
       style="fill:#26a9e1;fill-rule:evenodd"
       id="path86" />
    <path
       d="M 113.6257,49.5775 113.22,49.5269 c -0.1958,0.2214 -0.8452,1.4218 -1.0662,1.8193 -0.204,0.3668 -1.1996,1.7038 -0.6356,1.8655 0.4043,0.1158 0.866,-1.0139 1.2263,-1.6386 0.3683,-0.6387 1.034,-1.5386 0.8812,-1.9956 z"
       style="fill:#26a9e1;fill-rule:evenodd"
       id="path88" />
    <path
       d="m 104.86,49.5455 c -0.7847,-0.0443 -0.4235,0.46 -0.2071,0.8387 l 1.0988,1.9336 c 0.1835,0.3261 0.4364,0.864 0.6334,0.9032 0.9596,0.1909 -0.2651,-1.5167 -0.4093,-1.7748 -0.2432,-0.4353 -0.8627,-1.6085 -1.1158,-1.9007 z"
       style="fill:#26a9e1;fill-rule:evenodd"
       id="path90" />
    <path
       d="m 99.7064,55.1474 c -0.1962,0.7243 0.4642,0.6164 1.672,0.753 0.3944,0.0446 2.1641,0.3467 2.3453,0.1513 0.5674,-0.6117 -1.1904,-0.6388 -1.74,-0.7033 -0.3376,-0.0397 -2.1168,-0.2758 -2.2773,-0.201 z"
       style="fill:#26a9e1;fill-rule:evenodd"
       id="path92" />
    <path
       d="m 117.5869,55.1432 -3.452,0.4192 c -0.1167,0.0628 -0.2689,0.2355 -0.1589,0.4384 0.1195,0.2203 0.2859,0.142 0.5528,0.1128 0.3117,-0.0342 3.2445,-0.3313 3.4038,-0.4389 0.1204,-0.0814 0.4407,-0.6199 -0.3457,-0.5315 z"
       style="fill:#26a9e1;fill-rule:evenodd"
       id="path94" />
    <path
       d="m 108.9081,52.6692 c 0.5884,-0.0369 0.4698,-0.3136 0.4783,-1.4755 l 0.0464,-3.507 c 0.002,-0.2745 0.001,-0.5724 0.007,-0.8778 0.0286,-1.6112 -0.6166,-0.9029 -0.6153,-0.3026 l -0.0537,5.2641 c -0.003,0.3213 -0.1087,0.5852 0.1378,0.8988 z"
       style="fill:#26a9e1;fill-rule:evenodd"
       id="path96" />
  </g>
</svg>
