<?xml version="1.0" encoding="UTF-8" standalone="no"?>
<svg
   version="1.1"
   width="127.5591pt"
   height="127.5591pt"
   id="svg99"
   viewBox="0 0 127.5591 127.5591"
   sodipodi:docname="logop.svg"
   inkscape:version="1.2.2 (732a01da63, 2022-12-09)"
   xmlns:inkscape="http://www.inkscape.org/namespaces/inkscape"
   xmlns:sodipodi="http://sodipodi.sourceforge.net/DTD/sodipodi-0.dtd"
   xmlns="http://www.w3.org/2000/svg"
   xmlns:svg="http://www.w3.org/2000/svg">
  <defs
     id="defs103" />
  <sodipodi:namedview
     id="namedview101"
     pagecolor="#ffffff"
     bordercolor="#000000"
     borderopacity="0.25"
     inkscape:showpageshadow="2"
     inkscape:pageopacity="0.0"
     inkscape:pagecheckerboard="0"
     inkscape:deskcolor="#d1d1d1"
     showgrid="false"
     inkscape:zoom="2.3636103"
     inkscape:cx="66.846891"
     inkscape:cy="85.674022"
     inkscape:window-width="1920"
     inkscape:window-height="991"
     inkscape:window-x="-9"
     inkscape:window-y="-9"
     inkscape:window-maximized="1"
     inkscape:current-layer="g388"
     inkscape:document-units="pt" />
  <g
     id="g388"
     transform="matrix(1.581029,0,0,1.581029,-24.069472,-4.0636936)">
    <path
       d="m 55.180486,49.794087 0.04385,7.264789 0.0023,15.569906 C 43.663762,73.333268 32.216101,64.903051 27.732617,54.200826 23.847075,44.925751 25.036024,35.131073 30.124102,26.547927 30.415436,23.970341 30.005376,17.583864 29.99207,15.179729 c -2.030996,0.88637 -5.305853,6.191942 -6.523007,8.30793 -6.551869,11.391812 -6.970175,25.22796 -1.016998,36.441636 7.687686,14.481317 23.431043,22.506347 39.922554,19.324728 l 0.05444,-22.166661 c 4.808365,-0.313167 9.492381,0.789197 14.404853,-3.628224 4.877427,-4.385935 6.085773,-13.113295 0.757337,-19.212655 -4.066959,-4.655061 -16.251247,-4.7185 -22.269176,-4.552733 z m 7.250732,-0.01434 c 4.490418,0.252633 11.519065,0.478372 11.443351,-6.447292 -0.02755,-2.543571 -1.476816,-4.511877 -3.463207,-5.503948 -2.096029,-1.047171 -5.086954,-1.007252 -7.856077,-0.875501 z"
       style="fill:#24aadf;fill-rule:evenodd;stroke-width:0.937066"
       id="path72" />
    <path
       d="m 55.22434,57.058876 -0.04385,-7.264789 -15.130048,0.0016 -0.05969,-32.98958 c 4.283982,-2.07129 6.494988,-3.546325 11.960798,-4.17294 24.469124,-2.8052931 41.57029,22.77922 30.169107,44.312612 -2.800702,5.290203 -7.22337,9.492661 -12.257005,12.254287 -2.376211,1.303739 -5.144584,2.025186 -5.86678,2.470386 l -0.04311,7.307331 C 68.971467,78.315271 75.431409,74.538615 78.465909,72.191079 92.253423,61.524649 97.054103,41.645272 89.167478,26.27168 86.323672,20.728656 83.960111,17.855613 80.082253,14.218675 77.237135,11.550474 71.240946,8.048192 66.224646,6.6908525 52.908851,3.0879292 41.955304,6.4626771 32.823319,12.809047 l -0.03289,44.168585 z"
       style="fill:#0f52ff;fill-rule:evenodd;stroke-width:0.937066"
       id="path74" />
  </g>
</svg>
