<svg width="186" height="57" viewBox="0 0 186 57" fill="none" xmlns="http://www.w3.org/2000/svg">
<g id="Logo">
<path id="Vector" d="M28.5591 2.9231C25.1933 2.9231 21.8604 3.58473 18.7509 4.87001C15.6413 6.15543 12.816 8.03936 10.4359 10.4144C8.056 12.7895 6.16817 15.609 4.88009 18.7121C3.59215 21.8152 2.92914 25.1413 2.92914 28.5C2.92914 31.8588 3.59215 35.1848 4.88009 38.2879C6.16817 41.3911 8.056 44.2105 10.4359 46.5857C12.816 48.9607 15.6413 50.8446 18.7509 52.13C21.8604 53.4153 25.1933 54.0769 28.5591 54.0769V41.2885C26.8761 41.2885 25.2097 40.9577 23.655 40.3149C22.1002 39.6723 20.6875 38.7304 19.4975 37.5429C18.3075 36.3554 17.3636 34.9455 16.7196 33.394C16.0755 31.8424 15.7441 30.1795 15.7441 28.5C15.7441 26.8206 16.0755 25.1576 16.7196 23.6061C17.3636 22.0545 18.3075 20.6447 19.4975 19.4572C20.6875 18.2697 22.1002 17.3277 23.655 16.6851C25.2097 16.0423 26.8761 15.7116 28.5591 15.7116V2.9231Z" fill="#0F52FF"/>
<path id="Vector_2" d="M28.5592 37.0256C33.2776 37.0256 37.1024 33.2086 37.1024 28.5C37.1024 23.7913 33.2776 19.9744 28.5592 19.9744C23.8408 19.9744 20.0159 23.7913 20.0159 28.5C20.0159 33.2086 23.8408 37.0256 28.5592 37.0256Z" fill="#0F52FF"/>
<path id="Vector_3" d="M2.92914 28.5C2.92914 31.8588 3.59215 35.1848 4.88009 38.2879C6.16817 41.3911 8.056 44.2105 10.4359 46.5857C12.816 48.9607 15.6413 50.8446 18.7509 52.13C21.8604 53.4153 25.1933 54.0769 28.5591 54.0769C31.9248 54.0769 35.2577 53.4153 38.3673 52.13C41.4768 50.8446 44.3021 48.9607 46.6822 46.5857C49.0621 44.2105 50.9499 41.3911 52.238 38.2879C53.526 35.1848 54.189 31.8588 54.189 28.5H41.374C41.374 30.1795 41.0426 31.8424 40.3985 33.394C39.7545 34.9455 38.8106 36.3553 37.6206 37.5428C36.4307 38.7303 35.0179 39.6723 33.4632 40.3149C31.9084 40.9577 30.242 41.2885 28.5591 41.2885C26.8761 41.2885 25.2097 40.9577 23.655 40.3149C22.1002 39.6723 20.6875 38.7303 19.4975 37.5428C18.3075 36.3553 17.3636 34.9455 16.7196 33.394C16.0755 31.8424 15.7441 30.1795 15.7441 28.5H2.92914Z" fill="#5BD0F4"/>
<path id="Vector_4" d="M37.1025 28.5C37.1025 26.2389 36.2023 24.0704 34.6003 22.4715C32.998 20.8725 30.825 19.9743 28.5592 19.9743C26.2934 19.9743 24.1204 20.8725 22.5182 22.4715C20.9159 24.0704 20.0158 26.2389 20.0158 28.5H28.5592H37.1025Z" fill="#5BD0F4"/>
<path id="Vector_5" d="M67.5745 18.8904H64.3913V36.5385H67.5745V18.8904Z" fill="#0F52FF"/>
<path id="Vector_6" d="M69.6532 30.286C69.6532 34.3703 72.4827 36.8914 76.2218 36.8914C79.9608 36.8914 82.7904 34.3703 82.7904 30.286C82.7904 26.2017 79.9608 23.6806 76.2218 23.6806C72.4827 23.6806 69.6532 26.2017 69.6532 30.286ZM72.8364 30.286C72.8364 27.8657 74.2512 26.4538 76.2218 26.4538C78.1924 26.4538 79.6071 27.8657 79.6071 30.286C79.6071 32.7063 78.1924 34.1181 76.2218 34.1181C74.2512 34.1181 72.8364 32.7063 72.8364 30.286Z" fill="#0F52FF"/>
<path id="Vector_7" d="M94.1658 24.0335V25.7226H93.9132C93.1553 24.6386 91.9426 23.6806 89.7699 23.6806C86.7888 23.6806 84.1108 26.2017 84.1108 30.0843C84.1108 33.9669 86.7888 36.488 89.7699 36.488C91.9426 36.488 93.1553 35.5047 93.8627 34.5215H94.1153V35.7317C94.1153 38.152 92.7005 39.2613 90.6289 39.2613C88.5573 39.2613 87.4962 38.152 87.0666 36.7149L84.2119 37.9503C84.8688 39.8411 86.7888 41.9337 90.6794 41.9337C94.6711 41.9337 97.2985 39.8411 97.2985 35.8073V24.0335H94.1658ZM90.73 33.7652C88.7594 33.7652 87.2941 32.3533 87.2941 30.0843C87.2941 27.8153 88.7594 26.4034 90.73 26.4034C92.7005 26.4034 94.1658 27.8153 94.1658 30.0843C94.1658 32.3533 92.7005 33.7652 90.73 33.7652Z" fill="#0F52FF"/>
<path id="Vector_8" d="M99.3578 30.286C99.3578 34.3703 102.187 36.8914 105.926 36.8914C109.665 36.8914 112.495 34.3703 112.495 30.286C112.495 26.2017 109.665 23.6806 105.926 23.6806C102.187 23.6806 99.3578 26.2017 99.3578 30.286ZM102.541 30.286C102.541 27.8657 103.956 26.4538 105.926 26.4538C107.897 26.4538 109.312 27.8657 109.312 30.286C109.312 32.7063 107.897 34.1181 105.926 34.1181C103.956 34.1181 102.541 32.7063 102.541 30.286Z" fill="#0F52FF"/>
<path id="Vector_9" d="M114.993 20.4031C114.993 21.6889 115.979 22.5713 117.243 22.5713C118.505 22.5713 119.491 21.6889 119.491 20.4031C119.491 19.1174 118.505 18.2349 117.243 18.2349C115.979 18.2349 114.993 19.1174 114.993 20.4031ZM118.834 24.0335H115.651V36.5385H118.834V24.0335Z" fill="#5BD0F4"/>
<path id="Vector_10" d="M121.67 41.5808H124.854V34.9249H125.106C125.814 35.9334 127.026 36.8914 129.2 36.8914C132.18 36.8914 134.859 34.3703 134.859 30.286C134.859 26.2017 132.18 23.6806 129.2 23.6806C127.026 23.6806 125.814 24.6386 125.056 25.7228H124.803V24.0335H121.67V41.5808ZM128.239 34.1686C126.269 34.1686 124.803 32.7567 124.803 30.286C124.803 27.8153 126.269 26.4034 128.239 26.4034C130.21 26.4034 131.675 27.8153 131.675 30.286C131.675 32.7567 130.21 34.1686 128.239 34.1686Z" fill="#5BD0F4"/>
<path id="Vector_11" d="M136.716 27.538C136.716 30.0087 138.787 30.9164 141.414 31.4206L142.072 31.5466C143.637 31.8491 144.345 32.2274 144.345 33.0341C144.345 33.8409 143.637 34.4711 142.173 34.4711C140.707 34.4711 139.521 33.866 139.191 32.0508L136.26 32.8072C136.691 35.4292 138.888 36.8914 142.173 36.8914C145.355 36.8914 147.428 35.404 147.428 32.782C147.428 30.1599 145.306 29.4541 142.476 28.8994L141.818 28.7733C140.505 28.5212 139.797 28.1682 139.797 27.3363C139.797 26.58 140.455 26.1009 141.668 26.1009C142.88 26.1009 143.738 26.6051 144.042 27.9665L146.922 27.0842C146.316 25.0673 144.472 23.6806 141.668 23.6806C138.686 23.6806 136.716 25.0673 136.716 27.538Z" fill="#5BD0F4"/>
<path id="Vector_12" d="M161.726 36.5385V24.0335H158.544V30.4877C158.544 32.8072 157.407 34.1686 155.461 34.1686C153.743 34.1686 152.784 33.2358 152.784 31.3449V24.0335H149.6V31.4962C149.6 34.5972 151.546 36.7402 154.477 36.7402C156.775 36.7402 157.836 35.7317 158.342 34.6728H158.594V36.5385H161.726Z" fill="#5BD0F4"/>
<path id="Vector_13" d="M164.55 24.0335V36.5385H167.734V29.0758C167.734 27.3615 168.542 26.4034 170.007 26.4034C171.271 26.4034 172.028 27.1093 172.028 28.4708V36.5385H175.212V29.0758C175.212 27.3615 176.02 26.4034 177.485 26.4034C178.749 26.4034 179.506 27.1093 179.506 28.4708V36.5385H182.69V28.3195C182.69 25.2941 180.82 23.8318 178.496 23.8318C176.45 23.8318 175.515 24.7395 174.909 25.7983H174.655C174.074 24.6135 173.039 23.8318 171.22 23.8318C169.401 23.8318 168.415 24.6386 167.936 25.5967H167.683V24.0335H164.55Z" fill="#5BD0F4"/>
</g>
</svg>
