<?xml version="1.0" encoding="UTF-8" standalone="no"?>
<svg
   version="1.1"
   width="127.5591pt"
   height="127.5591pt"
   id="svg99"
   sodipodi:docname="lpo.svg"
   viewBox="0 0 127.5591 127.5591"
   inkscape:version="1.2.2 (732a01da63, 2022-12-09)"
   xmlns:inkscape="http://www.inkscape.org/namespaces/inkscape"
   xmlns:sodipodi="http://sodipodi.sourceforge.net/DTD/sodipodi-0.dtd"
   xmlns="http://www.w3.org/2000/svg"
   xmlns:svg="http://www.w3.org/2000/svg">
  <defs
     id="defs103" />
  <sodipodi:namedview
     id="namedview101"
     borderopacity="0.25"
     inkscape:showpageshadow="2"
     inkscape:pageopacity="0.0"
     inkscape:pagecheckerboard="0"
     inkscape:deskcolor="#d1d1d1"
     showgrid="false"
     inkscape:zoom="4.7272207"
     inkscape:cx="50.981331"
     inkscape:cy="66.529579"
     inkscape:window-width="1920"
     inkscape:window-height="991"
     inkscape:window-x="-9"
     inkscape:window-y="-9"
     inkscape:window-maximized="1"
     inkscape:current-layer="svg99"
     inkscape:document-units="cm" />
  <g
     id="g2098"
     transform="matrix(0.34736598,0,0,0.34736598,129.98852,68.475848)">
    <g
       id="g408"
       transform="matrix(2.2792224,0,0,2.2792224,-250.57675,-304.52844)">
      <path
         d="m 37.592345,117.57351 c 0.942395,0.29641 2.295735,-0.17623 2.864251,-0.46347 2.974082,-1.50276 3.0524,-5.10431 3.855799,-8.62887 0.384221,-1.68507 2.220875,-8.934427 1.993657,-10.43248 -0.134279,-0.884389 -0.637334,-1.927534 -1.533707,-2.16813 -1.341078,-0.192869 -2.369762,-0.803208 -4.463618,0.378736 -1.590036,0.897758 -2.362154,2.656549 -2.693407,4.493614 -0.217922,1.20816 -0.601543,2.59658 -0.845902,3.87521 -0.468823,2.45325 -1.021758,5.4163 -1.630109,7.76436 -0.330381,1.27472 -0.531089,2.27144 -0.115866,3.33753 l 0.57181,0.90555 c 0.700189,0.79967 1.178876,0.56176 1.997092,0.93795 z"
         style="fill:#24aadf;fill-rule:evenodd"
         id="path8" />
      <path
         d="m 53.842337,117.13 c -0.06139,-0.17774 -0.264926,-8.60756 -0.173891,-8.99676 2.346578,-1.56913 2.361554,-2.01525 3.159288,-5.31699 0.272489,-1.12822 0.712289,-2.67955 0.818073,-3.77251 0.152092,-1.571794 -0.524027,-2.05174 -0.807236,-2.596295 -1.256688,-0.762434 -1.85583,-0.935811 -3.637583,-0.800036 -1.070377,0.08154 -2.400852,0.02258 -3.487849,0.04522 l -4.848812,21.631301 2.517552,-0.0269 1.964555,-8.60877 c 0.465728,-0.15825 1.206978,-0.16286 1.748463,-0.007 0.127745,0.50425 0.08346,1.61535 0.05964,2.21077 -0.05352,1.33876 0.165512,5.32622 0.0557,6.47712 0.565272,0.10891 0.966433,0.0498 1.487449,0.0643 0.594531,0.0163 1.033764,0.20887 1.14465,-0.30349 z"
         style="fill:#24aadf;fill-rule:evenodd"
         id="path12" />
      <path
         d="m 24.755382,117.12166 c 0.443433,0.11157 1.17334,0.12805 1.591789,0.0218 l 1.643581,-7.78218 c 0.574897,-0.27435 1.409401,-0.10075 2.05819,-0.13894 4.773708,-0.28146 4.835249,-4.93469 5.605167,-8.42857 0.246485,-1.118102 0.604474,-3.372153 -0.635976,-3.972253 -1.118937,-0.900589 -1.974381,-0.752239 -3.299984,-0.737426 -1.011752,0.01112 -2.569641,-0.0418 -3.330145,0.108078 -0.880215,4.886901 -2.122119,10.608221 -3.15989,15.625281 -0.234737,1.13491 -1.014232,4.38636 -1.089365,5.26215 z"
         style="fill:#24aadf;fill-rule:evenodd"
         id="path14" />
      <path
         d="m 14.343737,117.1208 1.394073,-0.0389 1.680705,-5.41512 c 0.378327,-0.0975 2.690968,-0.0127 3.044947,0.10435 -0.131924,0.71605 0.07815,0.53671 -0.771538,0.59094 -0.435445,0.0279 -0.169728,-0.0331 -0.412557,0.0862 0.227966,0.11978 0.09379,0.0943 0.398084,0.14984 l 0.760312,0.10661 c -0.207443,0.77419 -0.280896,3.59914 -0.559227,4.64639 0.428825,0.083 0.319925,0.0289 0.621174,0.0316 0.191153,-0.16629 0.153962,-0.20059 0.552292,-0.25143 l 1.398122,-0.004 c 0.28407,-0.98173 0.356806,-4.11155 0.477122,-5.36036 0.168789,-1.74963 0.267863,-3.46318 0.417041,-5.27987 0.03568,-0.43416 0.789563,-9.870059 0.624442,-10.36734 -1.112751,-0.186868 -2.69514,0.107821 -3.807815,0.01301 -1.071657,3.534676 -2.319229,6.92531 -3.379092,10.44959 -0.496825,1.6521 -1.070134,3.63447 -1.673693,5.2089 -0.316664,0.82557 -0.526948,1.75564 -0.828611,2.60946 -0.15122,0.42835 -0.277608,0.89463 -0.421218,1.33786 -0.04783,0.14797 -0.180014,0.50916 -0.207361,0.63518 -0.03437,0.15726 -0.04075,0.16715 -0.04001,0.32781 0.0018,0.32721 -0.03067,0.10442 0.0712,0.33432 z"
         style="fill:#24aadf;fill-rule:evenodd"
         id="path16" />
      <path
         d="m 8.2020155,117.87904 -0.8537685,-0.0623 0.2569337,-0.78464 c 0.8879705,-0.14533 4.2191573,0.14608 4.9136633,-0.0546 l 0.47147,-2.14631 c -0.53324,-0.25241 -2.016078,-0.10052 -2.669483,-0.16721 -0.3903879,0.0243 -0.3453124,0.1018 -0.6832437,-0.12417 L 13.135203,96.47647 13.478554,96.399 C 12.87577,96.217189 12.439281,96.185953 11.779196,96.222247 l -0.992772,0.07822 c -0.304143,1.569357 -0.715473,3.380717 -0.9765108,4.994753 l -1.1065659,6.20534 c -0.1186012,0.46194 -0.2445681,0.80803 -0.2996298,1.28089 -0.1997847,1.71617 -0.8964496,4.43594 -0.9667947,5.05741 -0.1500014,1.32637 -0.3672507,1.65535 -0.4230352,2.12936 -0.035813,0.30482 -0.050417,0.16073 0.01094,0.33743 -0.042602,0.15899 -0.160503,0.52598 -0.1722808,0.66808 -0.022925,0.2741 0.016575,0.19275 0.026263,0.20953 0.2057524,0.35878 0.034778,0.0696 0.1315319,0.0311 l 0.5321734,0.1428 -0.1711381,0.63908 z"
         style="fill:#24aadf;fill-rule:evenodd"
         id="path18" />
      <path
         d="m 11.360474,110.99494 c -0.552088,1.06552 -0.535407,3.00544 -1.039643,3.66904 0.653405,0.0667 2.136243,-0.0852 2.669483,0.16721 l -0.47147,2.14631 c -0.694506,0.20069 -4.0256928,-0.0907 -4.9136633,0.0546 l -0.2569337,0.78464 0.8537685,0.0623 c 0.7817445,-0.0715 2.1553675,0.0123 2.9948055,0.0454 l 2.311096,0.0902 c 0.54467,-0.0348 0.480191,-0.45564 0.977627,0.0247 0.180812,0.17444 0.110396,0.19305 0.288356,0.0973 -0.244706,-0.27677 -0.09781,-0.0129 -0.05533,-0.39664 -0.239225,-0.0662 -0.05949,-0.14235 -0.30505,-0.0249 l -0.213637,-0.0573 0.143852,-0.53686 -0.661608,-0.0851 c -0.101869,-0.2299 -0.06943,-0.007 -0.0712,-0.33432 -7.42e-4,-0.16066 0.0056,-0.17055 0.04001,-0.32781 0.02735,-0.12602 0.159535,-0.48721 0.207361,-0.63518 0.14361,-0.44323 0.269998,-0.90951 0.421218,-1.33786 0.301663,-0.85382 0.511947,-1.78389 0.828611,-2.60946 0.603559,-1.57443 1.176868,-3.5568 1.673693,-5.2089 1.059863,-3.52428 2.307435,-6.914915 3.379092,-10.449591 1.112675,0.09481 2.695064,-0.199877 3.807815,-0.01301 0.165121,0.497281 -0.588758,9.933181 -0.624442,10.367341 -0.149178,1.81669 -0.248252,3.53024 -0.417041,5.27987 -0.120316,1.24881 -0.193052,4.37863 -0.477122,5.36036 l -1.398122,0.004 c -0.39833,0.0508 -0.361139,0.0851 -0.552292,0.25143 0.131842,0.23472 -0.05706,-0.28084 0.04254,0.19205 0.0047,0.0226 0.01104,0.0589 0.01655,0.0847 l 0.06783,0.3094 c 1.005728,0.11916 2.192342,-0.0948 3.090791,0.11601 l 0.151562,-0.69237 c 0.04359,-0.21173 0.131859,-4.02005 0.379822,-5.33415 0.262829,-1.88345 0.256239,-5.06341 0.60104,-7.51977 0.131043,-0.93339 0.652682,-6.993469 0.449262,-7.427404 -0.100576,0.401241 -0.114943,0.704455 -0.129424,1.070686 l -0.07227,0.80482 c -0.08472,0.22887 -0.0058,0.08563 -0.122199,0.195639 -0.254502,-0.235184 -0.163237,-0.182467 -0.05549,-1.198914 0.05355,-0.503912 0.117087,-0.945824 0.162468,-1.479151 -0.488422,-0.126421 -0.556206,0.05005 -0.850613,-0.212392 -0.346122,-0.308598 0.197537,-0.322254 -1.489206,-0.307306 l -1.956213,0.03074 c -0.306712,0.0076 -0.435715,-0.02678 -0.649313,0.125523 l -6.000377,18.443849 c -0.668176,0.0255 -2.933381,0.11293 -3.436263,-0.0264 0.06745,-0.36301 0.770083,-3.30904 0.660256,-3.56333 z"
         style="fill:#232324;fill-rule:evenodd"
         id="path22" />
      <path
         d="m 58.011464,102.32519 c -0.256139,0.46485 -0.22594,0.56156 -0.296657,1.06812 -0.215016,1.54157 -0.866043,3.15329 -2.052624,4.18007 -1.665918,1.44176 -1.499828,-1.17409 -1.370073,5.39948 l 0.08862,3.46304 c 0.02575,0.9695 0.07688,0.87915 -0.272844,1.05845 -0.02076,-0.0303 -0.06129,-0.0896 -0.07592,-0.10959 L 53.842337,117.13 c -0.110886,0.51236 -0.550119,0.31982 -1.14465,0.30349 -0.521016,-0.0144 -0.922177,0.0446 -1.487449,-0.0643 0.109815,-1.1509 -0.109218,-5.13836 -0.0557,-6.47712 0.02382,-0.59542 0.0681,-1.70652 -0.05964,-2.21077 -0.541485,-0.15596 -1.282735,-0.15135 -1.748463,0.007 l -1.964555,8.60877 -2.517552,0.0269 4.848812,-21.631302 c 1.086997,-0.02264 2.417472,0.03633 3.487849,-0.04522 1.781753,-0.135775 2.380895,0.0376 3.637583,0.800036 l 0.159553,-0.0499 c -0.787881,-1.135407 -4.296224,-0.845246 -5.513812,-0.849112 -0.298101,-9.89e-4 -1.609634,-0.0035 -1.82695,0.04674 -0.149855,0.354493 -0.275241,0.925601 -0.35604,1.314852 -0.277036,1.332191 -0.07276,0.773836 -0.538702,1.000878 0.06028,0.234803 0.213254,0.119051 0.190189,0.515386 -0.02598,0.44856 -0.144755,0.28484 -0.19476,0.591238 l -0.196978,1.351774 -0.267194,0.068 c -0.257435,0.0949 -0.07518,-0.083 -0.258236,0.13382 0.07744,0.0684 0.05306,0.0257 0.168846,0.087 l 0.249418,0.13941 c -0.13922,0.63935 -0.06719,0.53742 -0.479233,0.78511 0.292755,0.47454 0.311249,0.0284 0.189463,0.61624 -0.104954,0.50722 -0.135542,0.10054 -0.207628,0.66978 -0.03388,0.26786 -0.04357,0.58299 -0.144983,0.85211 -0.377509,1.00204 -0.06045,0.0289 -0.531137,0.53103 0.505505,0.41735 0.338886,-0.10911 0.329443,0.43923 -0.0084,0.47823 -0.136338,0.34114 -0.388964,0.57264 0.32474,0.6237 0.10792,0.11537 -0.0517,1.38646 -0.02408,0.19264 -0.10009,0.67376 -0.177575,0.84007 -0.388271,0.83278 -0.01605,-0.1159 -0.474253,0.44005 0.363824,0.35226 0.438686,0.0362 0.116534,0.79722 -0.28101,0.66431 0.0223,0.13932 -0.117344,0.90776 -0.306278,1.68474 -0.311989,1.47771 -0.778637,1.96897 0.527813,0.55626 0.183618,0.43442 0.02611,1.02881 -0.04522,0.1703 -0.153927,0.94113 -0.230604,1.31461 l -0.27711,0.11811 c -0.169789,0.0773 -0.0099,-0.0341 -0.198188,0.0971 0.26366,0.59201 0.326308,-0.29862 0.296064,0.57347 -0.01679,0.48456 -0.08198,0.20124 -0.366385,0.5498 0.359004,0.45565 0.125608,0.37892 0.01432,0.99905 -0.03909,0.21812 -0.141335,0.77513 -0.18903,1.16911 l 0.788303,0.062 c -0.206232,0.49458 -0.354242,0.35574 -0.06245,0.59936 l 0.504285,0.46828 c 0.01774,-0.0322 0.02846,-0.17189 0.04149,-0.19077 0.150868,-0.21994 0.09362,-0.21571 1.028118,-0.18656 0.485734,0.0151 1.091979,0.0345 1.529812,-0.008 0.369285,-1.34226 1.638488,-8.17157 2.116254,-8.68925 0.556503,0.18607 0.281898,-0.11434 0.300942,1.29864 l -0.01668,2.90362 c -0.115941,0.85461 -0.06649,0.009 0.04169,0.68244 0.06996,0.43514 -0.04635,0.43224 -0.231482,0.75108 0.404546,0.38575 0.407955,0.6431 -0.100379,1.00093 0.04675,0.0631 0.140584,0.15341 0.177732,0.19753 0.589138,0.70024 -0.08986,0.76035 -0.194461,0.82581 0.346007,0.32989 0.415448,0.0116 0.53404,0.66053 0.334282,-0.0517 -0.08617,0.0148 0.17388,-0.0883 0.220735,-0.0878 -0.0021,-0.0987 0.334687,-0.10464 l 0.04685,0.64117 3.387436,0.0795 c 0.135041,-0.79027 -0.129145,-7.39572 -0.09508,-9.01964 0.01086,-0.52001 0.20218,-0.5262 0.514656,-0.72645 0.866334,-0.55489 1.580445,-1.41486 2.012481,-2.44267 0.401138,-0.9546 1.283679,-4.35608 1.090916,-5.12073 -0.40256,0.43638 -0.476977,1.55369 -0.695784,2.20454 z"
         style="fill:#232324;fill-rule:evenodd"
         id="path26" />
      <path
         d="m 37.962739,115.068 0.81175,0.37984 c 0.261393,-0.18309 -0.06728,-4.3e-4 0.357399,-0.0978 l 0.828947,-0.36127 c 0.766912,-0.55243 0.96305,-1.44477 1.222331,-2.54919 l 1.492812,-6.88607 c 0.112895,-0.64041 0.281546,-1.66082 0.400678,-2.30287 0.110283,-0.59472 0.996205,-3.327649 0.815243,-4.028154 -0.08704,-0.337011 0.0033,-0.185462 -0.304049,-0.414622 -1.624993,-0.08839 -1.924131,0.792709 -2.349714,2.682766 l -2.016466,9.16685 c -0.17276,0.78887 -0.369928,1.57803 -0.572471,2.35943 -0.528875,2.04179 -0.101462,1.13594 -0.07142,2.23549 z"
         style="fill:#ffffff;fill-opacity:1;fill-rule:evenodd"
         id="path32" />
      <path
         d="m 35.018133,96.821547 c 1.24045,0.6001 0.882461,2.854151 0.635976,3.972253 -0.769918,3.49388 -0.831459,8.14711 -5.605167,8.42857 -0.648789,0.0382 -1.483293,-0.13541 -2.05819,0.13894 l -1.643581,7.78218 c -0.418449,0.10622 -1.148459,0.0901 -1.591789,-0.0218 l -0.107303,0.4248 -0.06785,0.40815 3.075003,0.11582 1.193584,-5.78479 c 0.07986,-0.5743 0.288908,-1.54766 0.464654,-2.11315 0.926305,-0.32316 2.943564,0.44833 5.036122,-1.30098 0.784466,-0.65581 0.687835,-0.72985 0.89809,-0.9257 0.311095,-0.28976 -0.01617,0.004 0.402339,-0.18673 -0.212565,-0.47438 0.08127,-0.60312 0.277211,-1.18255 0.266668,-0.8341 1.272316,-4.38284 1.045812,-5.28738 -0.149993,0.25879 -0.141587,0.43684 -0.20162,0.73081 -0.08349,0.40934 -0.08819,0.59495 -0.327082,0.81616 -0.169165,-0.25539 0.304639,-2.08044 0.31192,-2.09796 l 0.36017,-0.35197 c -0.201695,-0.20778 -0.275053,-0.11521 -0.226769,-0.554279 0.0646,-0.585739 0.07761,-0.316291 0.277403,-0.459976 -0.01662,-0.02143 -0.04255,-0.04867 -0.05232,-0.06247 -0.563156,-0.789869 -0.182966,-2.131483 -2.219929,-2.8391 0.06628,0.110417 0.08332,0.235385 0.123309,0.351181 z"
         style="fill:#141414;fill-rule:evenodd"
         id="path34" />
      <path
         d="m 44.772345,95.88056 c 0.896373,0.240596 1.399428,1.283741 1.533707,2.16813 0.227218,1.498053 -1.609436,8.74741 -1.993657,10.43248 -0.803399,3.52456 -0.881717,7.12611 -3.855799,8.62887 -0.568516,0.28724 -1.921856,0.75988 -2.864251,0.46347 l -0.538308,0.15982 c 0.395446,0.15814 0.265251,0.0649 0.447225,0.28558 1.774128,0.2238 1.520686,0.61483 3.278826,0.11204 0.895975,-0.25634 1.71666,-0.78691 2.322603,-1.4244 1.216921,-1.28026 1.155159,-2.19999 1.529992,-2.82807 0.271722,-0.45539 0.01918,-0.0847 0.248715,-1.41505 0.380438,-2.20569 0.274159,-0.95208 0.650625,-1.48542 -0.42461,-0.34371 -0.364585,-0.14697 -0.104895,-0.78541 l 0.332919,-2.01251 c 0.16126,-0.76565 0.03543,-0.61633 0.52918,-0.7679 -0.05616,-0.15129 -0.169402,-0.11734 -0.189178,-0.43416 -0.02287,-0.36671 0.124624,-0.43496 0.176875,-0.61528 0.05658,-0.19532 0.160084,-0.95677 0.25947,-1.39685 l 0.473655,-0.21565 c -0.681066,-1.31923 -0.308427,0.85935 -0.01744,-1.1029 0.04875,-0.32837 -0.157644,-0.11833 0.04718,-0.8074 0.125905,-0.42313 0.0449,-0.33758 0.150448,-0.89143 0.01508,-0.0791 0.147789,-0.57049 0.179183,-0.62275 0.142741,-0.23869 0.01944,-0.0699 0.168981,-0.17202 l 0.225118,-0.0844 c -0.338874,-0.34723 -0.247229,0.0665 -0.24352,-0.42221 0.0043,-0.55427 0.243339,-0.28224 0.220866,-0.832399 -0.0214,-0.525961 -0.108106,-0.433035 0.191905,-0.869975 -0.533449,-0.691323 -0.07071,-1.150607 -1.049039,-2.315925 -1.111622,-1.32392 -2.074401,-0.848403 -2.801257,-1.34184 l 0.344212,0.338523 c 0.282376,0.20766 0.137873,-0.05168 0.345665,0.255056 z"
         style="fill:#141414;fill-rule:evenodd"
         id="path36" />
      <path
         d="m 37.962739,115.068 0.615039,0.18437 c -0.03004,-1.09955 -0.457454,-0.1937 0.07142,-2.23549 0.202543,-0.7814 0.399711,-1.57056 0.572471,-2.35943 l 2.016466,-9.16685 c 0.425583,-1.890057 0.724721,-2.771157 2.349714,-2.682766 -0.09013,-0.391568 -0.186603,-0.626131 -0.712299,-0.793494 -1.083987,-0.345219 -2.266729,0.369726 -2.650746,1.598504 -0.63248,2.024696 -1.70589,8.019746 -2.328551,10.693606 -0.206477,0.88688 -0.382256,1.78167 -0.58995,2.70052 -0.214034,0.94677 -0.166592,1.63634 0.656436,2.06103 z"
         style="fill:#141414;fill-rule:evenodd"
         id="path42" />
      <path
         d="m 13.478554,96.398996 -0.343351,0.07747 -3.4976157,18.063344 c 0.3379313,0.22597 0.2928558,0.14846 0.6832437,0.12417 0.504236,-0.6636 0.487555,-2.60352 1.039643,-3.66904 0.429484,-1.06503 0.618041,-2.555 0.826869,-3.58163 0.25322,-1.24447 0.584524,-2.58562 0.84305,-3.76913 0.523425,-2.39701 0.855223,-4.882113 1.399505,-7.213999 z"
         style="fill:#030203;fill-rule:evenodd"
         id="path46" />
      <path
         d="m 53.842337,117.13 0.189625,0.25476 c 0.01463,0.02 0.05516,0.0793 0.07592,0.10959 0.349722,-0.1793 0.298596,-0.0889 0.272844,-1.05845 l -0.08862,-3.46304 c -0.129755,-6.57357 -0.295845,-3.95772 1.370073,-5.39948 1.186581,-1.02678 1.837608,-2.6385 2.052624,-4.18007 0.07072,-0.50656 0.04052,-0.60327 0.296657,-1.06812 0.439065,-0.82994 0.756326,-2.794052 0.687892,-3.602719 -0.07438,-0.878796 -0.636853,-2.093152 -1.701232,-2.324931 l -0.159553,0.0499 c 0.283209,0.544555 0.959328,1.024501 0.807236,2.596295 -0.105784,1.092965 -0.545584,2.644285 -0.818073,3.772505 -0.797734,3.30174 -0.81271,3.74786 -3.159288,5.317 -0.09104,0.3892 0.112503,8.81901 0.173891,8.99675 z"
         style="fill:#030203;fill-rule:evenodd"
         id="path52" />
      <path
         d="m 51.271149,106.34825 c 0.698505,0.13406 0.816601,0.0669 1.13446,-0.0352 0.380148,-0.12207 0.61323,-0.27329 0.884108,-0.55592 0.89873,-0.93774 1.045182,-2.35596 1.285328,-3.65093 0.219035,-1.18064 1.138889,-2.852118 -0.08541,-3.460727 L 53.987498,98.8442 c 0.333704,0.237875 0.05305,-0.128446 0.320661,0.210051 -0.256185,0.153215 -0.202791,0.127043 -0.589813,0.158858 -0.157061,0.01278 -0.199938,0.0036 -0.34614,0.02838 -0.163932,0.02761 -0.136494,0.02451 -0.239789,0.07116 -0.644395,0.774821 -1.282387,5.623201 -1.861268,7.035601 z"
         style="fill:#ffffff;fill-opacity:1;fill-rule:evenodd"
         id="path56" />
      <path
         d="m 30.245417,98.545106 -1.722822,8.172574 1.389885,0.1135 c 0.427257,-1.21668 0.552675,-2.48762 0.832763,-3.69984 0.283682,-1.22833 0.498746,-2.42815 0.877265,-3.67041 0.39958,0.01907 0.765806,0.02661 1.085651,-0.141639 -0.08664,-0.10552 -0.04058,-0.03748 -0.204427,-0.157787 l -0.20782,-0.149377 c -0.01478,-0.0109 -0.04902,-0.02877 -0.06742,-0.04975 0.243375,-0.07528 0.465673,-0.01509 0.786042,-0.179887 -0.632724,-0.425148 -1.26884,-0.383259 -2.069659,-0.354548 z"
         style="fill:#141414;fill-rule:evenodd"
         id="path60" />
      <path
         d="m 51.271149,106.34825 c 0.578881,-1.4124 1.216873,-6.26078 1.861268,-7.035599 0.103295,-0.04666 0.07586,-0.04355 0.239789,-0.07116 0.146202,-0.02481 0.189079,-0.01559 0.34614,-0.02838 0.387022,-0.03182 0.333628,-0.0056 0.589813,-0.158858 -0.26761,-0.338497 0.01304,0.02782 -0.320661,-0.210051 l 0.502139,-0.198707 c -0.234285,-0.50691 -0.622817,-0.483368 -1.348396,-0.467314 -0.544385,0.01211 -0.971591,-0.05183 -1.429148,0.06627 l -1.842784,7.930989 c 0.47933,0.12906 0.979337,-0.0366 1.40184,0.17281 z"
         style="fill:#141414;fill-rule:evenodd"
         id="path62" />
      <path
         d="m 18.141393,109.34837 1.375216,0.0438 c 0.224371,-0.98302 1.565714,-4.69773 1.62349,-5.25838 0.191831,-1.86345 0.21425,-3.30714 0.711008,-5.242204 -0.986835,-0.37706 -0.559476,0.144935 -1.185163,2.225804 -0.696626,2.31663 -2.075373,6.30385 -2.524551,8.23096 z"
         style="fill:#141414;fill-rule:evenodd"
         id="path64" />
      <path
         d="m 14.343737,117.1208 -0.143852,0.53686 0.213637,0.0573 c 0.245565,-0.11745 0.06572,-0.0409 0.30505,0.0249 0.457281,0.14489 1.732346,0.18693 2.167368,0.066 0.431263,-1.04385 1.015756,-3.27583 1.425858,-4.56139 0.242876,-0.76076 0.173123,-1.01084 0.967569,-0.79631 0.242829,-0.11921 -0.02289,-0.0583 0.412557,-0.0862 0.849689,-0.0542 0.639614,0.12511 0.771538,-0.59094 -0.353979,-0.11701 -2.66662,-0.20185 -3.044947,-0.10435 l -1.680705,5.41512 z"
         style="fill:#141414;fill-rule:evenodd"
         id="path68" />
    </g>
    <g
       id="g427"
       transform="matrix(1.586671,0.42514721,-0.42514721,1.586671,-294.73021,-97.229398)">
      <path
         d="m 132.39129,-22.292843 c -0.1025,0.1663 -0.009,-0.1154 -0.1119,0.2914 l -0.1433,0.989 c -0.0534,0.6286 -7e-4,0.7469 -0.1759,1.3478 -0.0425,0.1454 -0.0279,0.8279 -0.222,1.7893 -0.1126,0.5577 -0.0241,-0.0487 0.016,0.5908 0.0412,0.6549 -0.193,0.9087 -0.2305,1.154 -0.046,0.2998 0.0431,0.107 0.0628,0.6313 0.0301,0.8047 -0.2484,0.719 -0.2705,1.0906 -0.003,0.0507 0.2007,0.5778 0.0243,1.2043 -0.1542,0.5473 0.026,-0.0439 -0.3139,0.4591 0.2065,0.2176 0.2423,0.3992 0.2042,0.8037 -0.061,0.6432 -0.1329,0.6097 -0.3428,0.7991 -0.0138,0.0125 -0.0491,0.0311 -0.0692,0.0519 0.3513,0.3872 0.2941,0.1396 0.2229,0.8549 -0.0731,0.7347999 -0.1949,0.5701999 -0.4461,0.7996999 l 0.1195,0.1076 c 0.0141,0.0171 0.0858,0.0924 0.1007,0.1184 0.0365,0.0639 0.0705,-0.106 0.0787,0.307 0.006,0.3191 -0.0936,0.3536 -0.0644,0.7908 l -0.2047,0.1532 c -0.2282,0.1824 -0.0462,-0.0781 -0.2018,0.1777 l 0.3281,0.3309 -0.3175,2.8242 c -0.0315,0.0183 0.021,0.0233 -0.2169,0.046 l -0.0873,0.001 c -0.003,0 -0.0165,-0.005 -0.0247,-0.004 -0.007,0.3054 -0.0263,0.1336 0.0821,0.2369 0.008,0.008 0.0368,0.0262 0.0463,0.0327 l 0.1846,0.0613 c -0.2702,1.4091 -0.0834,0.5781 -0.1548,1.6586 -0.0327,0.4946 -0.0575,0.3485 -0.1695,0.6882 -0.147,0.4453 0.1801,0.818 -0.1362,1.5543 -0.2018,0.4697 -0.208,-0.0523 -0.0991,0.4821 0.2185,1.0715 -0.0521,1.1523 -0.2982,1.4633 0.5838,0.8588 -0.1757,1.4027 -0.1087,1.8205 l 0.7165,-0.1272 c -0.0442,0.2241 -0.008,0.1365 -0.1083,0.311 0.4844,-0.2424 -0.0984,-0.3259 0.5459,-0.57 0.1756,-0.0665 0.677,-0.1597 0.9168,-0.2225 0.5177,-0.1356 1.1661,-0.3076 1.7618,-0.4137 0.2202,-1.6651 0.4018,-7.1397 0.7828,-8.1585 l 4.2569,-1.1214 c 0.2078,0.4161 0.2064,0.77 0.2502,1.3116 l -0.3813,0.201 0.3811,-0.0298 c 0.0267,1.112 0.2977,2.5514 0.4409,3.6913 0.0665,0.5291 0.1858,2.2164 0.4172,2.5417 0.2133,0.2998 0.0356,-0.1309 0.2181,0.336 0.0575,0.1467 0.0328,0.2434 0.1085,0.4278 l -0.0822,-0.7777 3.5159,-0.9335 c -0.1079,-2.4596 -2.756,-19.0739999 -3.2244,-22.3369999 -0.3496,-2.4344 -0.8507,-5.148 -1.0473,-7.5058 -0.6797,0.0079 -5.2601,1.3497 -5.9251,1.6226 z"
         style="fill:#0f52ff;fill-rule:evenodd"
         id="path2" />
      <path
         d="m 118.10709,6.4105569 c 0.0203,-0.6355 1.8857,-0.4424 3.0364,-1.0648 l -0.2966,-11.1401 c 1.1977,-0.6082 2.8465,-0.4195 4.9063,-1.7718 0.605,-0.3971 1.3238,-1.0753 1.6917,-1.6186 0.4258,-0.6287 0.8535,-1.3348999 1.1353,-2.1799999 0.6859,-2.0567 0.2439,-6.7883 0.2052,-9.3229 -0.0146,-0.9601 -0.0419,-1.3998 -0.331,-2.2655 -0.0138,-0.0415 -0.0932,-0.3009 -0.0953,-0.3265 -0.0221,-0.2798 -0.0445,-0.1347 0.0566,-0.3051 -0.553,-0.9908 -0.5554,-0.9908 -1.2896,-1.5629 -2.3881,-1.8604 -7.1981,0.2849 -10.3327,1.1428 -0.135,1.1297 0.2651,6.4457 0.0496,6.8739 l -0.1558,0.1939 c 0.299,0.4298 0.2028,-0.044 0.2553,0.5528 l 0.0751,1.6539 c -0.0978,0.8495 0.0266,-0.1219 -0.3196,0.5511 0.6278,0.3905 0.3112,-0.1111 0.2433,0.8883 l 0.1103,0.5517 c 0.0378,0.2032 0.0238,0.1266 0.0333,0.323 0.0177,0.364 0.0337,0.7302 0.0428,1.1107 0.0223,0.9295 -0.0499,0.3794 -0.2701,0.8768 0.6021,0.4648999 0.1581,0.5138999 0.2865,1.2319999 0.0515,0.2876 0.0867,0.42 0.0824,0.7609 -0.002,0.1218 0.003,0.2717 -0.0441,0.3685 l -0.3456,0.2861 c 0.3376,0.2776 0.3398,-0.0788 0.4044,0.4577 0.0741,0.6154 -0.2789,-0.156 0.0569,1.9692 -0.5017,0.3497 -0.3176,0.0783 -0.4222,0.3309 0.5459,0.4278 0.2327,-0.3318 0.4312,0.3485 0.1142,0.3906 -0.1047,0.4785 -0.2473,0.6443 0.3082,0.4698 0.2316,-0.0451 0.2815,0.5562 0.0298,0.3595 0.1237,1.654 -0.0197,1.9155 l -0.2543,0.2861 c 0.0282,0.0188 0.0758,0.005 0.0891,0.0497 l 0.2128,0.1697 c 0.0915,0.1342 0.0841,0.0716 0.066,0.3064 -0.0333,0.4352 -0.1898,0.1765 -0.0714,0.6772 0.0997,0.4212 0.2255,0.8949 0.0252,1.2314 -0.2206,0.3701 -0.158,-0.0639 -0.2789,0.3233 l 0.298,0.0812 c 0.0117,0.003 0.0489,0.0129 0.0585,0.0154 0.009,0.002 0.0379,0.006 0.0554,0.0138 0.032,0.8418 -0.007,0.3505 -0.2507,0.8824 0.4819,0.4546 0.2399,0.3555 0.2451,0.9898 0.003,0.3724 0.0752,0.9127 0.097,1.3268 l -0.3373,0.3309 c 0.1046,0.1986 0.0747,0.049 0.1661,0.164 0.3964,0.4986 0.1117,0.5439 0.0765,1.0218 z"
         style="fill:#0f52ff;fill-rule:evenodd"
         id="path4" />
      <path
         d="m 153.34369,-30.219843 -0.2722,0.672 c -0.0654,0.2532 -0.1182,0.4529 -0.1953,0.6919 -0.7159,2.2191 -1.8978,7.3116 -2.4914,8.9929 -0.1804,0.5112 -0.0484,0.3893 -0.4508,0.3558 -0.1609,0.351 -0.5395,0.458 -1.0724,0.4223 l -0.0503,-12.8543 c 0.2756,-0.1901 -0.2272,-0.0164 0.3936,-0.182 -0.4783,-0.0029 -0.2626,-0.3567 -0.3111,-0.8861 -0.4329,-0.0807 -3.5601,0.8301 -3.8271,1.0633 l -0.0997,0.5485 c -0.006,0.1933 0.008,0.468 0.0124,0.6693 l -0.1257,4.1978 -0.2638,0.3253 0.4161,0.1103 c 0.0223,0.5672 0.0839,0.5182 -0.2476,0.7777 0.2382,0.5403 0.2012,-0.0828 0.2593,0.5496 l 0.0276,1.5489 c -0.0215,0.5248 -0.0255,0.3627 -0.2768,0.6538 0.3196,0.5311 0.3542,1.3993 0.2966,2.1036 -0.0741,0.9062 -0.0303,0.0522 -0.2984,0.6542 0.5117,0.4927 0.1928,0.3063 0.3265,2.3165 -0.0204,0.0223 -0.0536,0.025 -0.0632,0.0649 l -0.2753,0.266 c 0.1855,0.3157 0.2854,0.0447 0.3166,0.5502 0.0293,0.4747 -0.1078,0.1178 -0.0321,0.6981 0.1754,1.3436 0.0938,1.0265 -0.2913,1.5094 0.4096,0.3294 0.252,-0.0393 0.3393,0.4452 0.0749,0.416 -0.0763,0.2504 -0.0581,0.6219 0.0172,0.3529 0.0883,0.847 0.0936,1.3598 -0.2574,0.154 -0.0527,-0.0613 -0.3653,0.2206 l 0.1971,0.1411 c 0.2034,0.193 0.076,-0.1448 0.165,0.2311 0.0904,0.3813 -0.0925,0.4166 -0.1045,0.6353 -0.0162,0.2933 0.0587,0.1075 0.1089,0.542 0.0336,0.2906999 -0.008,0.5616999 0.0117,0.8773999 -0.0178,0.0173 -0.0499,0.0138 -0.0587,0.046 -0.0589,0.2126 -0.0368,-0.0478 -0.3324,0.2849 0.4952,0.41 0.3102,-0.1038 0.3863,0.4425 0.0519,0.3714 -0.0967,0.2925 -0.1093,0.558 -1e-4,10e-4 0.1174,1.1258 0.1388,1.4264 -0.1477,0.0899 -0.2424,0.0233 -0.3948,0.2206 0.1115,0.2481 -0.0229,0.0584 0.1858,0.1675 l 0.1994,0.0531 c 0.0651,0.935 -0.2476,0.4112 -0.0734,1.0717 0.2728,1.0345 -0.0412,3.4673 0.1749,4.4779 l 0.3896,0.0387 c 0.0606,-0.2262 0.0158,-0.1924 0.6749,-0.3505 0.6685,-0.1602 2.2466,-0.4938 2.6077,-0.715 l -0.0393,-13.7886999 1.4748,-0.446 0.3295,1.4629 c -0.0235,0.0215 -0.1551,0.13 -0.159,0.1333 0.395,0.0848 1.016,2.279 1.1473,2.7067 0.455,1.4819 2.7142,8.3405999 3.0701,8.8740999 0.0323,-0.4758 -0.2559,-0.2402 0.3935,-0.4508 0.6701,-0.2173 2.7813,-0.5743 3.7072,-0.9184 0.0391,-0.5837 -1.0776,-3.1294 -1.3731,-3.9159 l -2.8967,-7.6926999 c -0.764,-2.0839 -1.3011,-2.4567 -0.875,-3.7927 0.8549,-2.6821 1.6751,-5.4145 2.4851,-8.1047 0.3636,-1.2074 2.4148,-7.5024 2.4665,-8.1128 l -4.0757,1.119 c -0.4298,1.3312 -0.7671,3.0411 -1.2359,4.3106 z"
         style="fill:#0f52ff;fill-rule:evenodd"
         id="path6" />
      <path
         d="m 163.47829,-11.320943 c 0.1516,-0.3855 0.2327,-0.29 0.9079,-0.6307 0.3112,-0.1571 0.669,-0.3521 1.0182,-0.5322 0.6315,-0.326 1.5792,-0.77 1.9865,-1.096 0.2387,-2.3923 0.3344,-10.6652 0.3957,-13.6161 l 0.2237,-10.2589 c 0.0168,-0.7996 -0.1488,-2.6908 0.2994,-3.2345 -0.369,0.0198 -0.2827,0.4501 -0.2658,-1.3487 -0.8669,0.1019 -5.1159,2.6277 -6.3449,3.2343 -0.1396,2.9372 0.2211,10.4508 0.2664,13.9272 0.0284,2.1694 0.2111,4.5415 0.2665,6.7234 0.0601,2.3749 0.0518,4.646 0.1555,6.9714 0.7669,-0.0011 0.7191,-0.3194 1.0909,-0.1392 z"
         style="fill:#0f52ff;fill-rule:evenodd"
         id="path10" />
      <path
         d="m 118.10709,6.4105569 0.0653,1.1162 4.1109,-0.8798 -0.3233,-11.2472 c 2.9636,-0.8672 5.2841,-1.1503 7.0562,-4.114 0.5985,-1.0011 0.7198,-1.5308999 0.9998,-2.7072999 0.0232,-0.0138 0.0683,-0.0471 0.0783,-0.0213 l 0.3461,0.0213 c -0.0869,-0.3235 0.2103,0.0907 -0.3513,-0.3309 0.0588,-1.2242 0.1031,-6.8905 -0.249,-7.5777 -0.266,0.6784 0.2815,1.9785 -0.2551,2.5413 -0.2097,-1.0344 -0.0191,-2.702 -0.1063,-3.8995 -0.1053,-1.4454 -0.5176,-1.9016 -1.063,-2.8964 -0.1011,0.1704 -0.0787,0.0253 -0.0566,0.3051 0.002,0.0256 0.0815,0.285 0.0953,0.3265 0.2891,0.8657 0.3164,1.3054 0.331,2.2655 0.0387,2.5346 0.4807,7.2662 -0.2052,9.3229 -0.2818,0.8451 -0.7095,1.5512999 -1.1353,2.1799999 -0.3679,0.5433 -1.0867,1.2215 -1.6917,1.6186 -2.0598,1.3523 -3.7086,1.1636 -4.9063,1.7718 l 0.2966,11.1401 c -1.1507,0.6224 -3.0161,0.4293 -3.0364,1.0648 z"
         style="fill:#141414;fill-rule:evenodd"
         id="path20" />
      <path
         d="m 157.88089,-35.656343 c -0.5755,0.2648 -1.8217,0.5536 -2.5418,0.756 l -0.5755,0.199 c -0.1889,0.1012 -0.0782,0.0228 -0.2087,0.1442 l -1.2112,4.3373 c 0.4688,-1.2695 0.8061,-2.9794 1.2359,-4.3106 l 4.0757,-1.119 c -0.0517,0.6104 -2.1029,6.9054 -2.4665,8.1128 -0.81,2.6902 -1.6302,5.4226 -2.4851,8.1047 -0.4261,1.336 0.111,1.7088 0.875,3.7927 l 2.8967,7.6926999 c 0.2955,0.7865 1.4122,3.3322 1.3731,3.9159 -0.9259,0.3441 -3.0371,0.7011 -3.7072,0.9184 -0.6494,0.2106 -0.3612,-0.025 -0.3935,0.4508 l 0.431,1.2348 5.1854,-1.2573 c -0.042,-0.4611 -2.2156,-6.0858 -2.5619,-7.0267 -0.3034,-0.8244999 -2.1189,-6.1746999 -2.8379,-6.8266999 0.0994,0.87 1.3694,3.3063 1.1298,3.7871 -0.2486,-0.3418 -0.7972,-1.9913 -1.0254,-2.6012 -0.3078,-0.823 -0.9578,-1.9543 -0.7059,-2.7669 l 3.531,-11.2504 c 0.317,-1.0387 1.8408,-5.0831 1.8659,-5.677 l -1.1668,0.2775 0.1918,-1.0556 z"
         style="fill:#141414;fill-rule:evenodd"
         id="path24" />
      <path
         d="m 132.39129,-22.292843 0.6043,-6.0455 c 0.665,-0.2729 5.2454,-1.6147 5.9251,-1.6226 0.1966,2.3578 0.6977,5.0714 1.0473,7.5058 0.4684,3.263 3.1165,19.8773999 3.2244,22.3369999 l -3.5159,0.9335 0.0822,0.7777 0.0554,0.5459 c 0.4139,0.0344 0.8262,-0.1271 1.2755,-0.2155 0.6177,-0.1216 0.8508,-0.3016 1.1867,0.0715 0.2401,-0.4156 -0.0659,-0.3707 0.4732,-0.4393 0.6586,-0.0841 0.1316,0.003 0.6116,0.2194 0.1352,-0.2946 0.004,-0.3317 0.3116,-0.4671 0.2085,-0.0916 0.2222,-0.0476 0.3499,-0.009 0.0259,0.008 0.0552,0.0273 0.0793,0.0379 0.0232,0.0101 0.0504,0.0345 0.0714,0.0456 0.3838,0.204 0.351,0.5923 0.1349,-0.9182 l -0.2911,-2.1872 c -0.0141,-0.7677 -0.0892,-0.211 0.2568,-0.6533 -0.3786,-0.2758 -0.3446,0.1038 -0.4268,-0.4448 -0.095,-0.6337 0.0467,-0.1806 0.1954,-0.6584 -0.6264,-0.306 -0.2739,-0.0707 -0.2779,-0.9007 -0.003,-0.6307 -0.1298,0.3215 -0.216,-1.0017 -10e-4,-0.0214 -0.002,-0.0535 -0.005,-0.0735 -0.002,-0.0185 -0.008,-0.0497 -0.0124,-0.0673 -0.004,-0.0174 -0.0151,-0.0471 -0.0201,-0.0641 -0.0225,-0.0745 -0.0902,-0.1671 -0.1349,-0.3576 -0.3137,-1.339 -1.1911,-8.3101999 -1.357,-9.7667999 l -0.8326,-6.384 c -0.2517,-1.6273 -0.5596,-5.0667 -1.1072,-6.3023 -0.1856,0.463 0.2646,2.2654 0.2186,2.6655 l -0.0756,0.2432 c -0.007,0.0185 -0.0233,0.0552 -0.0417,0.0787 l -0.51,-3.5791 -0.5775,-0.0508 -0.172,-1.1343 c -0.5297,0.0404 -5.6244,1.5072 -5.9441,1.688 l -0.267,2.7229 -0.3799,0.2221 c 0.1887,0.6018 0.2808,-0.3594 0.2839,0.6449 6e-4,0.215 -0.0881,0.567 -0.1003,0.8995 l -0.3224,0.1102 c 0.2189,0.6099 0.2979,-0.3868 0.2622,0.5811 -0.0141,0.3808 -0.0764,0.5606 -0.0627,1.0127 z"
         style="fill:#232324;fill-rule:evenodd"
         id="path28" />
      <path
         d="m 168.30969,-40.689343 c -0.4482,0.5437 -0.2826,2.4349 -0.2994,3.2345 l -0.2237,10.2589 c -0.0613,2.9509 -0.157,11.2238 -0.3957,13.6161 -0.4073,0.326 -1.355,0.77 -1.9865,1.096 -0.3492,0.1801 -0.707,0.3751 -1.0182,0.5322 -0.6752,0.3407 -0.7563,0.2452 -0.9079,0.6307 l 0.0297,1.3122 c 0.6943,-0.1234 4.1033,-2.015 4.8926,-2.447 0.3112,-2.7182 0.3568,-10.8265 0.4418,-14.0842 0.1258,-4.8087 0.2549,-9.6681 0.2925,-14.466 z"
         style="fill:#030203;fill-rule:evenodd"
         id="path30" />
      <path
         d="m 121.81489,-9.9353431 c 0.8139,0.2157 2.333,-0.6527999 2.6628,-1.0007999 0.6026,-0.6361 0.8554,-1.7507 0.8206,-2.9123 -0.0364,-1.2127 -0.0648,-2.4189 -0.1032,-3.6401 -0.0223,-0.7095 0.1656,-2.9334 -0.4717,-3.3898 -0.4835,-0.0962 -0.7523,-0.0726 -1.2339,0.0272 -0.1131,0.0234 -0.4374,0.1003 -0.517,0.1303 l -0.4426,0.3003 c 0.5686,-0.058 0.5875,-0.117 0.7931,0.0638 -0.2538,0.1914 -0.3849,0.2434 -0.7397,0.3483 -0.1381,0.0406 -0.3158,0.0767 -0.4378,0.1176 l -0.3129,0.1401 c -0.3951,-0.7356 0.0107,9.1676 -0.0177,9.8153999 z"
         style="fill:#ffffff;fill-opacity:1;fill-rule:evenodd"
         id="path38" />
      <path
         d="m 164.58639,-3.4103431 c 0.845,0.1083 2.1063,0.6908 3.5852,-0.7873 0.7583,-0.7579 1.0364,-1.66 1.0054,-2.8156 -0.008,-0.2935 -0.0632,-0.4226 -0.0867,-0.6395 -0.078,-0.7194 -0.1926,-0.2346 0.1304,-0.5095 -0.0181,-0.0237 -0.0505,-0.0854 -0.0606,-0.0659 l -0.1836,-0.186 c -0.1068,-0.1021 -0.1721,-0.1495 -0.2922,-0.2725 -0.5035,-0.5164 -1.0053,-1.0769 -1.7508,-1.3267999 -1.9064,-0.6391 -4.5569,1.5082999 -4.0552,4.0711999 0.1398,0.7147 0.5764,1.46 1.1052,1.9637 z"
         style="fill:#0f52ff;fill-rule:evenodd"
         id="path40" />
      <path
         d="m 145.64179,-0.5382431 0.004,1.3389 4.434,-1.0397 c 0.1361,-2.8502 -0.048,-7.5544 -0.0221,-10.8514999 0.005,-0.5891 -0.002,-1.1756 -0.005,-1.7652 -0.005,-0.8302 -0.2518,-1.305 0.4777,-1.3865 0.004,-0.0033 0.1355,-0.1118 0.159,-0.1333 l -0.3295,-1.4629 -1.4748,0.446 0.0393,13.7886999 c -0.3611,0.2212 -1.9392,0.5548 -2.6077,0.715 -0.6591,0.1581 -0.6143,0.1243 -0.6749,0.3505 z"
         style="fill:#141414;fill-rule:evenodd"
         id="path44" />
      <path
         d="m 130.05979,3.5995569 0.2216,0.9079 4.0288,-0.9575 0.7486,-8.029 1.5553,-0.4876 c 0.5537,-0.1395 1.0519,-0.3349 1.5788,-0.4073 l 0.3813,-0.201 c -0.0438,-0.5416 -0.0424,-0.8955 -0.2502,-1.3116 l -4.2569,1.1214 c -0.381,1.0188 -0.5626,6.4934 -0.7828,8.1585 -0.5957,0.1061 -1.2441,0.2781 -1.7618,0.4137 -0.2398,0.0628 -0.7412,0.156 -0.9168,0.2225 -0.6443,0.2441 -0.0615,0.3276 -0.5459,0.57 z"
         style="fill:#141414;fill-rule:evenodd"
         id="path48" />
      <path
         d="m 135.58139,-9.8398431 1.0077,-10.1345999 c 0.2206,-0.7131 -0.01,-1.6452 -0.1171,-2.4971 -0.1092,-0.8668 -0.0598,-1.8277 -0.0698,-2.7104 -0.3904,-0.0645 -0.4918,0.0019 -0.8519,0.1464 l -0.16,4.021 c -0.1157,1.2813 -0.2198,2.5701 -0.3454,3.8568 -0.2573,2.6364 -0.4736,5.2599 -0.729,7.8981999 0.2439,-0.0202 0.6399,-0.0697 0.8553,-0.1484 0.5666,-0.2072 0.2191,0.0862 0.4102,-0.4319 z"
         style="fill:#141414;fill-rule:evenodd"
         id="path50" />
      <path
         d="m 121.81489,-9.9353431 c 0.0284,-0.6477999 -0.3774,-10.5509999 0.0177,-9.8153999 l 0.3129,-0.1401 c 0.122,-0.0409 0.2997,-0.077 0.4378,-0.1176 0.3548,-0.1049 0.4859,-0.1569 0.7397,-0.3483 -0.2056,-0.1808 -0.2245,-0.1218 -0.7931,-0.0638 l 0.4426,-0.3003 c 0.0796,-0.03 0.4039,-0.1069 0.517,-0.1303 0.4816,-0.0998 0.7504,-0.1234 1.2339,-0.0272 0.5143,0.1059 0.156,0.081 0.2554,-0.1401 -0.4757,-0.7309 -1.0147,-1.0348 -2.1361,-0.7984 -0.4398,0.0928 -2.0122,0.5042 -2.3505,0.688 l 0.2668,11.6414999 c 0.213,0.0533 0.3781,0.059 0.6101,-0.008 0.6511,-0.1871 0.3767,-0.0597 0.4458,-0.4403 z"
         style="fill:#141414;fill-rule:evenodd"
         id="path54" />
      <path
         d="m 149.93399,-19.507243 -0.084,-12.7173 -0.6451,0.1033 c -0.6208,0.1656 -0.118,-0.0081 -0.3936,0.182 l 0.0503,12.8543 c 0.5329,0.0357 0.9115,-0.0713 1.0724,-0.4223 z"
         style="fill:#141414;fill-rule:evenodd"
         id="path58" />
      <path
         d="m 135.58139,-9.8398431 c 0.1536,0.2574 2.1471,-0.4104999 2.2213,-0.4431999 0.0398,-0.1068 0.036,0.002 0.0396,-0.2456 l -0.2473,-2.1449 c -0.205,-1.3807 -0.7657,-6.7498 -1.0059,-7.3009 z"
         style="fill:#ffffff;fill-opacity:1;fill-rule:evenodd"
         id="path66" />
      <path
         d="m 164.58639,-3.4103431 c 0.5313,0.5773 1.0291,1.2212 2.0939,1.2864 2.6548,0.1623 4.2464,-2.7121 3.2593,-5.0479 -0.2459,-0.5817 -0.4732,-0.5824 -0.7189,-0.9904 -0.323,0.2749 -0.2084,-0.2099 -0.1304,0.5095 0.0235,0.2169 0.0788,0.346 0.0867,0.6395 0.031,1.1556 -0.2471,2.0577 -1.0054,2.8156 -1.4789,1.4781 -2.7402,0.8956 -3.5852,0.7873 z"
         style="fill:#030203;fill-rule:evenodd"
         id="path70" />
    </g>
    <g
       id="g388"
       transform="matrix(1.5684377,0,0,1.5684377,-395.82194,-127.38829)">
      <path
         d="m 55.3615,50.8904 0.0468,7.7527 0.0025,16.6156 C 43.0713,76.0105 30.8548,67.0141 26.0702,55.5931 21.9237,45.6951 23.1925,35.2426 28.6223,26.083 28.9332,23.3323 28.4956,16.5169 28.4814,13.9513 26.314,14.8972 22.8192,20.5591 21.5203,22.8172 14.5284,34.9741 14.082,49.7395 20.435,61.7063 28.639,77.1602 45.4397,85.7242 63.0388,82.3289 l 0.0581,-23.6554 c 5.1313,-0.3342 10.1299,0.8422 15.3723,-3.8719 5.205,-4.6805 6.4945,-13.994 0.8082,-20.503 -4.3401,-4.9677 -17.3427,-5.0354 -23.7648,-4.8585 z m 7.7377,-0.0153 c 4.792,0.2696 12.2927,0.5105 12.2119,-6.8803 -0.0294,-2.7144 -1.576,-4.8149 -3.6958,-5.8736 -2.2368,-1.1175 -5.4286,-1.0749 -8.3837,-0.9343 z"
         style="fill:#24aadf;fill-rule:evenodd"
         id="path72" />
      <path
         d="M 55.4083,58.6431 55.3615,50.8904 39.2153,50.8921 39.1516,15.6869 C 43.7233,13.4765 46.0828,11.9024 51.9157,11.2337 78.0282,8.24 96.2779,35.5428 84.111,58.5224 81.1222,64.1679 76.4025,68.6526 71.0308,71.5997 68.495,72.991 65.5407,73.7609 64.77,74.236 l -0.046,7.7981 C 70.0787,81.3271 76.9725,77.2968 80.2108,74.7916 94.9243,63.4088 100.0474,42.1943 91.6311,25.7882 88.5963,19.8729 86.074,16.8069 81.9357,12.9257 78.8995,10.0783 72.5006,6.3408 67.1474,4.8923 52.9373,1.0474 41.2481,4.6488 31.5028,11.4214 l -0.0351,47.135 z"
         style="fill:#0f52ff;fill-rule:evenodd"
         id="path74" />
    </g>
  </g>
</svg>
