<?xml version="1.0" encoding="UTF-8" standalone="no"?>
<svg
   version="1.1"
   width="127.5591pt"
   height="127.5591pt"
   id="svg99"
   viewBox="0 0 127.5591 127.5591"
   sodipodi:docname="thumbnail.svg"
   inkscape:version="1.2.2 (732a01da63, 2022-12-09)"
   xmlns:inkscape="http://www.inkscape.org/namespaces/inkscape"
   xmlns:sodipodi="http://sodipodi.sourceforge.net/DTD/sodipodi-0.dtd"
   xmlns="http://www.w3.org/2000/svg"
   xmlns:svg="http://www.w3.org/2000/svg">
  <defs
     id="defs103" />
  <sodipodi:namedview
     id="namedview101"
     pagecolor="#ffffff"
     bordercolor="#000000"
     borderopacity="0.25"
     inkscape:showpageshadow="2"
     inkscape:pageopacity="0.0"
     inkscape:pagecheckerboard="0"
     inkscape:deskcolor="#d1d1d1"
     showgrid="false"
     inkscape:zoom="2.3636103"
     inkscape:cx="69.38538"
     inkscape:cy="85.674021"
     inkscape:window-width="1920"
     inkscape:window-height="991"
     inkscape:window-x="-9"
     inkscape:window-y="-9"
     inkscape:window-maximized="1"
     inkscape:current-layer="svg99"
     inkscape:document-units="pt" />
  <g
     id="g388"
     transform="matrix(1.581029,0,0,1.581029,-24.069472,-4.0636936)">
    <path
       d="m 55.3615,50.8904 0.0468,7.7527 0.0025,16.6156 C 43.0713,76.0105 30.8548,67.0141 26.0702,55.5931 21.9237,45.6951 23.1925,35.2426 28.6223,26.083 28.9332,23.3323 28.4956,16.5169 28.4814,13.9513 26.314,14.8972 22.8192,20.5591 21.5203,22.8172 14.5284,34.9741 14.082,49.7395 20.435,61.7063 28.639,77.1602 45.4397,85.7242 63.0388,82.3289 l 0.0581,-23.6554 c 5.1313,-0.3342 10.1299,0.8422 15.3723,-3.8719 5.205,-4.6805 6.4945,-13.994 0.8082,-20.503 -4.3401,-4.9677 -17.3427,-5.0354 -23.7648,-4.8585 z m 7.7377,-0.0153 c 4.792,0.2696 12.2927,0.5105 12.2119,-6.8803 -0.0294,-2.7144 -1.576,-4.8149 -3.6958,-5.8736 -2.2368,-1.1175 -5.4286,-1.0749 -8.3837,-0.9343 z"
       style="fill:#24aadf;fill-rule:evenodd"
       id="path72" />
    <path
       d="M 55.4083,58.6431 55.3615,50.8904 39.2153,50.8921 39.1516,15.6869 C 43.7233,13.4765 46.0828,11.9024 51.9157,11.2337 78.0282,8.24 96.2779,35.5428 84.111,58.5224 81.1222,64.1679 76.4025,68.6526 71.0308,71.5997 68.495,72.991 65.5407,73.7609 64.77,74.236 l -0.046,7.7981 C 70.0787,81.3271 76.9725,77.2968 80.2108,74.7916 94.9243,63.4088 100.0474,42.1943 91.6311,25.7882 88.5963,19.8729 86.074,16.8069 81.9357,12.9257 78.8995,10.0783 72.5006,6.3408 67.1474,4.8923 52.9373,1.0474 41.2481,4.6488 31.5028,11.4214 l -0.0351,47.135 z"
       style="fill:#0f52ff;fill-rule:evenodd"
       id="path74" />
  </g>
</svg>
